<svg xmlns="http://www.w3.org/2000/svg" width="56" height="36" viewBox="0 0 56 36">
  <defs>
    <style>
      .cls-1 {
        fill: #434343;
        fill-rule: evenodd;
      }
    </style>
  </defs>
  <path id="icon" class="cls-1" d="M81,268H71v-2h9a1,1,0,0,0,1-1v-8h2v9A2,2,0,0,1,81,268Zm0-33a1,1,0,0,0-1-1H71v-2H81a2,2,0,0,1,2,2v9H81v-8Zm-8,3v24H69V238h4Zm-8,0h2v24H65V238Zm-3,24V238h2v24H62Zm-4,0V238h2v24H58Zm-5,0V238h3v24H53Zm-6,0V238h2v24H47Zm-3-24h2v24H44V238Zm-6,24V238h3v24H38Zm-9-27v8H27v-9a2,2,0,0,1,2-2H39v2H30A1,1,0,0,0,29,235Zm0,30a1,1,0,0,0,1,1h9v2H29a2,2,0,0,1-2-2v-9h2v8Z" transform="translate(-27 -232)"/>
</svg>
