<svg xmlns="http://www.w3.org/2000/svg" xmlns:xlink="http://www.w3.org/1999/xlink" width="34" height="43" viewBox="0 0 34 43">
  <defs>
    <style>
      .cls-1 {
        fill: #777;
        fill-rule: evenodd;
        filter: url(#filter);
      }
    </style>
    <filter id="filter" x="189" y="1016" width="34" height="43" filterUnits="userSpaceOnUse">
      <feFlood result="flood" flood-color="#414142"/>
      <feComposite result="composite" operator="in" in2="SourceGraphic"/>
      <feBlend result="blend" in2="SourceGraphic"/>
    </filter>
  </defs>
  <path id="反馈建议" class="cls-1" d="M217,1059H195a6,6,0,0,1-6-6v-25.96a6,6,0,0,1,6-6h6V1025h-4a4,4,0,0,0-4,4v22a4,4,0,0,0,4,4h18a4,4,0,0,0,4-4v-22a4,4,0,0,0-4-4h-4v-3.96h6a6,6,0,0,1,6,6V1053A6,6,0,0,1,217,1059Zm-13-38h4v16h-4v-16Zm4,17-2,2.99-2-2.99H208Zm7,12.86v0.28a0.864,0.864,0,0,1-.863.86H197.863a0.864,0.864,0,0,1-.863-0.86v-0.28a0.864,0.864,0,0,1,.863-0.86h16.274A0.864,0.864,0,0,1,215,1050.86ZM199.863,1046h12.274a0.864,0.864,0,0,1,.863.86v0.28a0.864,0.864,0,0,1-.863.86H199.863a0.864,0.864,0,0,1-.863-0.86v-0.28A0.864,0.864,0,0,1,199.863,1046ZM204,1018a2,2,0,0,1,4,0v2h-4v-2Z" transform="translate(-189 -1016)"/>
</svg>
