<svg id="图" xmlns="http://www.w3.org/2000/svg" width="165.281" height="164.781" viewBox="0 0 165.281 164.781">
  <defs>
    <style>
      .cls-1 {
        fill: #8f8d8d;
      }

      .cls-2, .cls-4 {
        fill: #777;
      }

      .cls-2, .cls-6 {
        fill-rule: evenodd;
      }

      .cls-3, .cls-6 {
        fill: #fff;
      }

      .cls-5 {
        fill: #90d277;
      }
    </style>
  </defs>
  <g id="手机">
    <circle id="椭圆_3" data-name="椭圆 3" class="cls-1" cx="82.641" cy="82.391" r="82.641"/>
    <path id="椭圆_3_拷贝" data-name="椭圆 3 拷贝" class="cls-2" d="M426.064,315.737C445.22,310.351,471.932,307,501.5,307c29.785,0,56.668,3.4,75.852,8.853A82.652,82.652,0,0,1,501.821,365h-0.134A82.656,82.656,0,0,1,426.064,315.737Z" transform="translate(-419.094 -200.219)"/>
  </g>
  <g id="组_2_副本" data-name="组 2 副本">
    <g id="手机-2" data-name="手机">
      <rect id="圆角矩形_37" data-name="圆角矩形 37" class="cls-3" x="52.906" y="32.781" width="60" height="100" rx="6" ry="6"/>
      <circle id="椭圆_9" data-name="椭圆 9" class="cls-4" cx="82.906" cy="124.781" r="5"/>
      <circle id="椭圆_9_拷贝" data-name="椭圆 9 拷贝" class="cls-4" cx="75.906" cy="37.781" r="1"/>
      <rect id="圆角矩形_39" data-name="圆角矩形 39" class="cls-4" x="77.906" y="36.781" width="14" height="2" rx="1" ry="1"/>
      <rect id="圆角矩形_38" data-name="圆角矩形 38" class="cls-4" x="55.906" y="42.781" width="54" height="74" rx="2" ry="2"/>
    </g>
    <g id="组_1" data-name="组 1">
      <circle id="椭圆_2" data-name="椭圆 2" class="cls-5" cx="117.921" cy="115.781" r="20.985"/>
      <path id="圆角矩形_40" data-name="圆角矩形 40" class="cls-6" d="M546,302.144a6,6,0,0,1,2.2,8.2l-3,5.2a6,6,0,1,1-10.392-6l3-5.2A6,6,0,0,1,546,302.144Zm-7,12.124a6,6,0,0,1,2.2,8.2l-3,5.2a6,6,0,0,1-10.392-6l3-5.2A6,6,0,0,1,539,314.268ZM538,316a4,4,0,0,1,1.464,5.464l-3,5.2a4,4,0,1,1-6.928-4l3-5.2A4,4,0,0,1,538,316Zm7-12.124a4,4,0,0,1,1.464,5.464l-3,5.2a4,4,0,1,1-6.928-4l3-5.2A4,4,0,0,1,545,303.876Zm-5,8.66a2,2,0,0,1,.732,2.732l-2,3.464a2,2,0,1,1-3.464-2l2-3.464A2,2,0,0,1,540,312.536Zm-0.5.866a1,1,0,0,1,.366,1.366l-2,3.464a1,1,0,1,1-1.732-1l2-3.464A1,1,0,0,1,539.5,313.4Z" transform="translate(-419.094 -200.219)"/>
    </g>
  </g>
</svg>
