<svg xmlns="http://www.w3.org/2000/svg" width="21" height="16" viewBox="0 0 21 16">
  <defs>
    <style>
      .cls-1 {
        fill: #f66465;
        fill-rule: evenodd;
      }
    </style>
  </defs>
  <path id="圆角矩形_4_拷贝_2" data-name="圆角矩形 4 拷贝 2" class="cls-1" d="M251,652H232a1,1,0,0,1-1-1v-8a1,1,0,0,1,2,0v7h17v-7a1,1,0,0,1,2,0v8A1,1,0,0,1,251,652Zm-2.566-11.223a0.739,0.739,0,0,1-1.049,0L246.01,639.4v7.217a1.062,1.062,0,1,1-2.02,0v-7.249l-1.406,1.411a0.739,0.739,0,0,1-1.049,0l-0.349-.351a0.746,0.746,0,0,1,0-1.053l3.154-3.165a1.143,1.143,0,0,1,1.283,0l3.154,3.165a0.747,0.747,0,0,1,0,1.053Zm-6.651,2.765a0.747,0.747,0,0,1,0,1.054l-3.154,3.165a1.148,1.148,0,0,1-1.283,0l-3.154-3.165a0.747,0.747,0,0,1,0-1.054l0.349-.35a0.739,0.739,0,0,1,1.049,0l1.406,1.411v-7.259a1.049,1.049,0,1,1,2.02,0v7.228l1.375-1.38a0.739,0.739,0,0,1,1.049,0Z" transform="translate(-231 -636)"/>
</svg>
