<svg xmlns="http://www.w3.org/2000/svg" width="31" height="21" viewBox="0 0 31 21">
  <defs>
    <style>
      .cls-1 {
        fill: #f66465;
        fill-rule: evenodd;
      }
    </style>
  </defs>
  <path id="圆角矩形_61_拷贝_3" data-name="圆角矩形 61 拷贝 3" class="cls-1" d="M92,42H84.358l3.358,3.358a0.96,0.96,0,0,1-1.358,1.358l-4.86-4.86a0.917,0.917,0,0,1-.213-0.14,0.955,0.955,0,0,1-.279-0.688C81.005,41.017,81,41.01,81,41s0.006-.014.006-0.023a0.954,0.954,0,0,1,.278-0.693,0.931,0.931,0,0,1,.217-0.144l4.856-4.856a0.96,0.96,0,0,1,1.358,1.358L84.358,40H92A1,1,0,0,1,92,42ZM73,37a1,1,0,0,1,1-1h7a1,1,0,0,1,0,2H74A1,1,0,0,1,73,37Zm15.982-3.178c0,0.06.018,0.117,0.018,0.178H67V46a1,1,0,0,0,1,1H84v2H68a3,3,0,0,1-3-3V34a3,3,0,0,1,0-6H88A2.993,2.993,0,0,1,88.982,33.822ZM88,30H65a1,1,0,0,0,0,2H88A1,1,0,0,0,88,30Z" transform="translate(-62 -28)"/>
</svg>
