<svg xmlns="http://www.w3.org/2000/svg" width="41" height="24" viewBox="0 0 41 24">
  <defs>
    <style>
      .cls-1 {
        fill: #f75354;
        fill-rule: evenodd;
      }
    </style>
  </defs>
  <path id="圆角矩形_46" data-name="圆角矩形 46" class="cls-1" d="M223,133h-1.808a3.945,3.945,0,0,0-7.879,0H212a2,2,0,0,1-2-2V118a2,2,0,0,1,2-2h6.546L225,124v7A2,2,0,0,1,223,133Zm-5.4-13.806H214.09a1.565,1.565,0,0,0-1.581,1.548v3.871a1.565,1.565,0,0,0,1.581,1.548h6.325A1.565,1.565,0,0,0,222,124.613,61.1,61.1,0,0,0,217.6,119.194ZM205,133h-2.782a3.945,3.945,0,0,0-7.88,0H187a3,3,0,0,1-3-3V116a3,3,0,0,1,3-3h18a3,3,0,0,1,3,3v14A3,3,0,0,1,205,133Zm-6.722-2.193a3.1,3.1,0,1,1-3.163,3.1A3.13,3.13,0,0,1,198.278,130.807Zm18.975,0a3.1,3.1,0,1,1-3.163,3.1A3.13,3.13,0,0,1,217.253,130.807Z" transform="translate(-184 -113)"/>
</svg>
