<svg xmlns="http://www.w3.org/2000/svg" width="56" height="44" viewBox="0 0 56 44">
  <defs>
    <style>
      .cls-1 {
        fill: #fff;
        fill-rule: evenodd;
      }
    </style>
  </defs>
  <path id="圆角矩形_62" data-name="圆角矩形 62" class="cls-1" d="M505,120v19.13a8.034,8.034,0,0,0-3-3.051V122a2,2,0,0,0-2-2H464a2,2,0,0,0-2,2v23a2,2,0,0,0,2,2h17v3H462a3,3,0,0,1-3-3V120a5,5,0,0,1,0-10h46A5,5,0,0,1,505,120Zm0-7H459a2,2,0,0,0,0,4h46A2,2,0,0,0,505,113Zm-30,16a1,1,0,0,1,0-2h15a1,1,0,0,1,0,2H475Zm10.5,14h14.352l-5.407-5.392a1.528,1.528,0,0,1,2.164-2.158l7.936,7.913a1.517,1.517,0,0,1,.446,1.091c0,0.016.009,0.03,0.009,0.046a1.447,1.447,0,0,1-.051.254,1.491,1.491,0,0,1-.4.852l-7.936,7.913a1.528,1.528,0,0,1-2.164-2.158L499.821,146H485.5A1.5,1.5,0,0,1,485.5,143Z" transform="translate(-454 -110)"/>
</svg>
