<svg xmlns="http://www.w3.org/2000/svg" width="56" height="44" viewBox="0 0 56 44">
  <defs>
    <style>
      .cls-1 {
        fill: #fff;
        fill-rule: evenodd;
      }
    </style>
  </defs>
  <path id="圆角矩形_62_拷贝" data-name="圆角矩形 62 拷贝" class="cls-1" d="M417,120v18h-3V122a2,2,0,0,0-2-2H376a2,2,0,0,0-2,2v23a2,2,0,0,0,2,2h17.367a6,6,0,0,0,2.324,3H374a3,3,0,0,1-3-3V120a5,5,0,0,1,0-10h46A5,5,0,0,1,417,120Zm0-7H371a2,2,0,0,0,0,4h46A2,2,0,0,0,417,113Zm-30,16a1,1,0,0,1,0-2h15a1,1,0,0,1,0,2H387Zm9.009,15.454a1.517,1.517,0,0,1,.446-1.091l7.936-7.913a1.528,1.528,0,0,1,2.165,2.158L401.148,143H415.5a1.5,1.5,0,0,1,0,3H401.179l5.377,5.361a1.528,1.528,0,0,1-2.165,2.158l-7.936-7.913a1.491,1.491,0,0,1-.4-0.852A1.447,1.447,0,0,1,396,144.5C396,144.484,396.009,144.47,396.009,144.454Z" transform="translate(-366 -110)"/>
</svg>
