<svg xmlns="http://www.w3.org/2000/svg" width="48" height="36" viewBox="0 0 48 36">
  <defs>
    <style>
      .cls-1 {
        fill: #434343;
        fill-rule: evenodd;
      }
    </style>
  </defs>
  <path id="圆角矩形_63" data-name="圆角矩形 63" class="cls-1" d="M535,509.9V533a3,3,0,0,1-3,3H498a3,3,0,0,1-3-3V509.9a5,5,0,0,1,1-9.9h38A5,5,0,0,1,535,509.9ZM499,530a2,2,0,0,0,2,2h28a2,2,0,0,0,2-2V511a1.987,1.987,0,0,0-.277-1H499.277a1.987,1.987,0,0,0-.277,1v19Zm34.5-26h-37a1.5,1.5,0,0,0,0,3h37A1.5,1.5,0,0,0,533.5,504Zm-25,10h13a1.5,1.5,0,0,1,0,3h-13A1.5,1.5,0,0,1,508.5,514Z" transform="translate(-491 -500)"/>
</svg>
