<svg xmlns="http://www.w3.org/2000/svg" xmlns:xlink="http://www.w3.org/1999/xlink" width="32" height="33" viewBox="0 0 32 33">
  <defs>
    <style>
      .cls-1 {
        fill: #fff;
        fill-rule: evenodd;
        filter: url(#filter);
      }
    </style>
    <filter id="filter" x="100" y="229" width="32" height="33" filterUnits="userSpaceOnUse">
      <feFlood result="flood" flood-color="#f66465"/>
      <feComposite result="composite" operator="in" in2="SourceGraphic"/>
      <feBlend result="blend" in2="SourceGraphic"/>
    </filter>
  </defs>
  <path id="圆角矩形_49" data-name="圆角矩形 49" class="cls-1" d="M130,256h-3a2,2,0,0,1-2-2V239.5a8.5,8.5,0,0,0-8.5-8.5h-1a8.5,8.5,0,0,0-8.5,8.5v11a8.5,8.5,0,0,0,5,7.74v2a11.028,11.028,0,0,1-5.559-4.857A1.989,1.989,0,0,1,105,256h-3a2,2,0,0,1-2-2V243a2,2,0,0,1,2-2h3v-1a11,11,0,0,1,22,0v1h3a2,2,0,0,1,2,2v11A2,2,0,0,1,130,256Zm-25-11.5a1.5,1.5,0,0,0-3,0v8a1.5,1.5,0,0,0,3,0v-8Zm25,0a1.5,1.5,0,0,0-3,0v8a1.5,1.5,0,0,0,3,0v-8ZM114.5,257h4a2.5,2.5,0,0,1,0,5h-4A2.5,2.5,0,0,1,114.5,257Zm0,3h4a0.5,0.5,0,0,0,0-1h-4A0.5,0.5,0,0,0,114.5,260Z" transform="translate(-100 -229)"/>
</svg>
