<svg xmlns="http://www.w3.org/2000/svg" width="13.969" height="17.031" viewBox="0 0 13.969 17.031">
  <defs>
    <style>
      .cls-1 {
        fill: #f66465;
        fill-rule: evenodd;
      }
    </style>
  </defs>
  <path id="圆角矩形_47_拷贝" data-name="圆角矩形 47 拷贝" class="cls-1" d="M581,661a6.986,6.986,0,0,1-.375-13.962l-1.365-1.391a0.988,0.988,0,0,1,0-1.384,0.956,0.956,0,0,1,1.365,0l3.093,3.152a0.988,0.988,0,0,1,0,1.384,0.932,0.932,0,0,1-.443.239l-2.647,2.68a0.925,0.925,0,0,1-1.317,0,0.947,0.947,0,0,1,0-1.329l1.338-1.354a4.988,4.988,0,1,0,5.317,5.3h2A6.983,6.983,0,0,1,581,661Zm0.62-12.948-0.42-.428v0.853Z" transform="translate(-574 -643.969)"/>
</svg>
