<svg xmlns="http://www.w3.org/2000/svg" width="21.719" height="17" viewBox="0 0 21.719 17">
  <defs>
    <style>
      .cls-1 {
        fill: #f66465;
        fill-rule: evenodd;
      }
    </style>
  </defs>
  <path id="圆角矩形_4_拷贝" data-name="圆角矩形 4 拷贝" class="cls-1" d="M224.426,646.654c0.012,0.017.026,0.032,0.038,0.049a12.962,12.962,0,0,1-20.926,0c0.013-.019.029-0.037,0.043-0.057a0.966,0.966,0,0,1-.425-0.787,0.987,0.987,0,0,1,1.663-.719c0.009-.01.017-0.02,0.026-0.029a11.012,11.012,0,0,0,18.311,0c0.011,0.012.021,0.025,0.032,0.036a0.99,0.99,0,0,1,1.672.714A0.966,0.966,0,0,1,224.426,646.654Zm-5.735-4.859L214.8,645.71a1.295,1.295,0,0,1-1.6,0l-3.892-3.915a0.869,0.869,0,0,1-.09-1.214l0.372-.374a0.858,0.858,0,0,1,1.207.09l2.192,2.2v-6.115a1.062,1.062,0,1,1,2.02,0V642.5l2.192-2.2a0.858,0.858,0,0,1,1.207-.09l0.372,0.374A0.869,0.869,0,0,1,218.691,641.795Z" transform="translate(-203.156 -635)"/>
</svg>
