<svg xmlns="http://www.w3.org/2000/svg" width="21" height="18" viewBox="0 0 21 18">
  <defs>
    <style>
      .cls-1 {
        fill: #f66465;
        fill-rule: evenodd;
      }
    </style>
  </defs>
  <path id="圆角矩形_14" data-name="圆角矩形 14" class="cls-1" d="M273.972,643.13a1.134,1.134,0,0,1-.01.165l-2.946,9.946a0.976,0.976,0,0,1-1.506.6A0.965,0.965,0,0,1,269,654H257a0.745,0.745,0,0,1-.082-0.017,0.942,0.942,0,0,1-.248-0.05,0.833,0.833,0,0,1-.084-0.029,1.006,1.006,0,0,1-.6-0.663l-2.946-9.946a1.016,1.016,0,0,1-.01-0.165A0.849,0.849,0,0,1,253,643c0-.026.013-0.047,0.015-0.072a0.906,0.906,0,0,1,.025-0.115,0.929,0.929,0,0,1,.093-0.27c0.015-.027.036-0.049,0.053-0.075a1,1,0,0,1,.182-0.208,1.768,1.768,0,0,1,.335-0.186c0.021-.007.037-0.023,0.059-0.029a0.847,0.847,0,0,1,.142-0.009,1.017,1.017,0,0,1,.146-0.028h18.9a1.017,1.017,0,0,1,.146.028,0.847,0.847,0,0,1,.142.009c0.022,0.006.038,0.022,0.059,0.029a1.768,1.768,0,0,1,.335.186,0.98,0.98,0,0,1,.182.209c0.017,0.025.038,0.047,0.053,0.074a0.929,0.929,0,0,1,.093.27,0.906,0.906,0,0,1,.025.115c0,0.025.015,0.046,0.015,0.072A0.849,0.849,0,0,1,273.972,643.13Zm-18.594.861,2.369,8H269a0.958,0.958,0,0,1,.239.049l2.383-8.044H255.378Zm11.728,5.532a0.558,0.558,0,0,1-.687.456,0.658,0.658,0,0,1-.4-0.789l0.872-3.735a0.558,0.558,0,0,1,.687-0.456,0.659,0.659,0,0,1,.4.789Zm-3.606.483a0.573,0.573,0,0,1-.5-0.625v-3.755a0.513,0.513,0,1,1,1,0v3.755A0.573,0.573,0,0,1,263.5,650.006Zm-2.916,0a0.56,0.56,0,0,1-.691-0.458l-0.876-3.754a0.661,0.661,0,0,1,.4-0.793,0.56,0.56,0,0,1,.691.458l0.876,3.754A0.663,0.663,0,0,1,260.584,650.006Zm7.172-8.334-2.667-4.66a0.676,0.676,0,0,1,.244-0.919,0.665,0.665,0,0,1,.911.246L268.911,641a0.675,0.675,0,0,1-.244.918A0.663,0.663,0,0,1,267.756,641.672Zm-8.512,0a0.663,0.663,0,0,1-.911.246,0.675,0.675,0,0,1-.244-0.918l2.667-4.661a0.665,0.665,0,0,1,.911-0.246,0.676,0.676,0,0,1,.244.919Z" transform="translate(-253 -636)"/>
</svg>
