<svg xmlns="http://www.w3.org/2000/svg" width="27" height="23" viewBox="0 0 27 23">
  <defs>
    <style>
      .cls-1 {
        fill: #434343;
        fill-rule: evenodd;
      }
    </style>
  </defs>
  <path id="圆角矩形_51" data-name="圆角矩形 51" class="cls-1" d="M357,664a7,7,0,1,1,7-7A7,7,0,0,1,357,664Zm0-12a5,5,0,1,0,5,5A5,5,0,0,0,357,652Zm1.543,6.866-1.877-.911a0.747,0.747,0,0,1-.666-0.622v-2.666a1.083,1.083,0,0,1,2,0V656.4l1.517,0.736a1.015,1.015,0,0,1,.357,1.366A0.961,0.961,0,0,1,358.543,658.866ZM342,655a1,1,0,0,1,0-2h5a1,1,0,0,1,0,2h-5Zm15-8a1,1,0,0,0-1-1h-3v1h-2v-1h-6v1h-2v-1h-3a1,1,0,0,0-1,1v2h18a7.959,7.959,0,0,0-5.279,2H339v8a1,1,0,0,0,1,1h9.587a8.01,8.01,0,0,0,1.173,2H339a2,2,0,0,1-2-2V646a2,2,0,0,1,2-2h4v-3h2v3h6v-3h2v3h4a2,2,0,0,1,2,2v3.262a7.992,7.992,0,0,0-2-.262v-2Z" transform="translate(-337 -641)"/>
</svg>
