<svg xmlns="http://www.w3.org/2000/svg" width="29.563" height="29.562" viewBox="0 0 29.563 29.562">
  <defs>
    <style>
      .cls-1 {
        fill: #979797;
        fill-rule: evenodd;
      }
    </style>
  </defs>
  <path id="圆角矩形_24_拷贝" data-name="圆角矩形 24 拷贝" class="cls-1" d="M41.895,191l12.369,12.374a1,1,0,0,1,0,1.414l-0.707.708a1,1,0,0,1-1.413,0L39.774,193.121,27.406,205.5a1,1,0,0,1-1.413,0l-0.707-.708a1,1,0,0,1,0-1.414L37.654,191,25.285,178.626a1,1,0,0,1,0-1.415l0.707-.707a1,1,0,0,1,1.413,0l12.369,12.375L52.143,176.5a1,1,0,0,1,1.413,0l0.707,0.707a1,1,0,0,1,0,1.415Z" transform="translate(-25 -176.219)"/>
</svg>
