<svg xmlns="http://www.w3.org/2000/svg" width="26" height="26" viewBox="0 0 26 26">
  <defs>
    <style>
      .cls-1 {
        fill: #434343;
        fill-rule: evenodd;
      }
    </style>
  </defs>
  <path id="圆角矩形_38_拷贝_2" data-name="圆角矩形 38 拷贝 2" class="cls-1" d="M108,310h8a2,2,0,0,1,2,2v8a2,2,0,0,1-2,2h-8a2,2,0,0,1-2-2v-8A2,2,0,0,1,108,310Zm1,2h6a1,1,0,0,1,1,1v6a1,1,0,0,1-1,1h-6a1,1,0,0,1-1-1v-6A1,1,0,0,1,109,312Zm3,3a1,1,0,1,1-1,1A1,1,0,0,1,112,315Zm-5,9a1,1,0,0,1,1,1v1a1,1,0,0,1-2,0v-1A1,1,0,0,1,107,324Zm5,0a1,1,0,0,1,1,1v6a1,1,0,0,1-2,0v-6A1,1,0,0,1,112,324Zm5,0a1,1,0,0,1,1,1v3a1,1,0,0,1-2,0v-3A1,1,0,0,1,117,324Zm-10,4a1,1,0,0,1,1,1v6a1,1,0,0,1-2,0v-6A1,1,0,0,1,107,328Zm5,5a1,1,0,0,1,1,1v1a1,1,0,0,1-2,0v-1A1,1,0,0,1,112,333Zm5-3a1,1,0,0,1,1,1v4a1,1,0,0,1-2,0v-4A1,1,0,0,1,117,330ZM94,310h8a2,2,0,0,1,2,2v8a2,2,0,0,1-2,2H94a2,2,0,0,1-2-2v-8A2,2,0,0,1,94,310Zm1,2h6a1,1,0,0,1,1,1v6a1,1,0,0,1-1,1H95a1,1,0,0,1-1-1v-6A1,1,0,0,1,95,312Zm3,3a1,1,0,1,1-1,1A1,1,0,0,1,98,315Zm-4,9h8a2,2,0,0,1,2,2v8a2,2,0,0,1-2,2H94a2,2,0,0,1-2-2v-8A2,2,0,0,1,94,324Zm1,2h6a1,1,0,0,1,1,1v6a1,1,0,0,1-1,1H95a1,1,0,0,1-1-1v-6A1,1,0,0,1,95,326Zm3,3a1,1,0,1,1-1,1A1,1,0,0,1,98,329Z" transform="translate(-92 -310)"/>
</svg>
