<svg xmlns="http://www.w3.org/2000/svg" width="24" height="28" viewBox="0 0 24 28">
  <defs>
    <style>
      .cls-1 {
        fill: #434343;
        fill-rule: evenodd;
      }
    </style>
  </defs>
  <path id="圆角矩形_48_拷贝_5" data-name="圆角矩形 48 拷贝 5" class="cls-1" d="M299,54H281a3,3,0,0,1-3-3V31a3,3,0,0,1,3-3h2v2h-2a1,1,0,0,0-1,1V51a1,1,0,0,0,1,1h18a1,1,0,0,0,1-1V31a1,1,0,0,0-1-1h-2V28h2a3,3,0,0,1,3,3V51A3,3,0,0,1,299,54Zm-11-9h8a1,1,0,1,1,0,2h-8A1,1,0,1,1,288,45Zm0-5h8a1,1,0,1,1,0,2h-8A1,1,0,1,1,288,40Zm8-3h-8a1,1,0,0,1,0-2h8A1,1,0,0,1,296,37Zm-3-7h-6a2,2,0,0,1,0-4h6A2,2,0,0,1,293,30Zm-9,15a1,1,0,1,1-1,1A1,1,0,0,1,284,45Zm0-5a1,1,0,1,1-1,1A1,1,0,0,1,284,40Zm0-3a1,1,0,1,1,1-1A1,1,0,0,1,284,37Z" transform="translate(-278 -26)"/>
</svg>
