<svg xmlns="http://www.w3.org/2000/svg" width="32" height="25" viewBox="0 0 32 25">
  <defs>
    <style>
      .cls-1 {
        fill: #434343;
        fill-rule: evenodd;
      }
    </style>
  </defs>
  <path id="圆角矩形_48_拷贝_2" data-name="圆角矩形 48 拷贝 2" class="cls-1" d="M349,38V48a3,3,0,0,1-3,3H332a3,3,0,0,1-3-3V38a3,3,0,0,1,0-6h20A3,3,0,0,1,349,38ZM331,48a1,1,0,0,0,1,1h14a1,1,0,0,0,1-1V38H331V48Zm18-14H329a1,1,0,0,0,0,2h20A1,1,0,0,0,349,34Zm-8,8h-4a1,1,0,0,1,0-2h4A1,1,0,0,1,341,42Zm-14-.9V49.35a3.479,3.479,0,0,1,1.929,2.664c0.025,0,.046-0.014.071-0.014h22a1,1,0,0,1,0,2H329a0.976,0.976,0,0,1-.315-0.064A3.495,3.495,0,1,1,325,49.05V41c0-.009,0-0.017,0-0.026l-4.891-8.5a1.047,1.047,0,0,1,.335-1.361,0.875,0.875,0,0,1,1.249.365l5.2,9.039A1.046,1.046,0,0,1,327,41.1ZM325.5,51a1.5,1.5,0,1,0,1.5,1.5A1.5,1.5,0,0,0,325.5,51Z" transform="translate(-320 -31)"/>
</svg>
