<svg xmlns="http://www.w3.org/2000/svg" width="31" height="21" viewBox="0 0 31 21">
  <defs>
    <style>
      .cls-1 {
        fill: #f66465;
        fill-rule: evenodd;
      }
    </style>
  </defs>
  <path id="圆角矩形_61" data-name="圆角矩形 61" class="cls-1" d="M237,40c0,0.01,0,.017,0,0.027a0.957,0.957,0,0,1-.28.688,0.913,0.913,0,0,1-.213.14l-4.86,4.86a0.96,0.96,0,0,1-1.357-1.358L233.642,41H225a1,1,0,0,1,0-2h8.642l-3.357-3.358a0.96,0.96,0,0,1,1.357-1.358l4.856,4.856a0.914,0.914,0,0,1,.217.144,0.957,0.957,0,0,1,.279.693C236.994,39.986,237,39.992,237,40Zm-19-6h7a1,1,0,0,1,0,2h-7A1,1,0,0,1,218,34Zm14.982-2.178c0,0.06.018,0.117,0.018,0.178H211V44a1,1,0,0,0,1,1h16v2H212a3,3,0,0,1-3-3V32a3,3,0,0,1,0-6h23A2.993,2.993,0,0,1,232.982,31.822ZM232,28H209a1,1,0,0,0,0,2h23A1,1,0,0,0,232,28Z" transform="translate(-206 -26)"/>
</svg>
