<svg xmlns="http://www.w3.org/2000/svg" width="39" height="18" viewBox="0 0 39 18">
  <defs>
    <style>
      .cls-1 {
        fill: #f75354;
        fill-rule: evenodd;
      }
    </style>
  </defs>
  <path id="圆角矩形_47" data-name="圆角矩形 47" class="cls-1" d="M274,133a9,9,0,1,1,9-9A9,9,0,0,1,274,133Zm4.216-11.714-4.97,5.08-3.485-3.545a1.022,1.022,0,0,0-1.482,0,1.112,1.112,0,0,0,0,1.534l4.228,4.3a1.023,1.023,0,0,0,1.481,0l5.71-5.835a1.114,1.114,0,0,0,0-1.535A1.024,1.024,0,0,0,278.216,121.286ZM245.5,118a1.5,1.5,0,0,1,0-3h22.187a11.056,11.056,0,0,0-2.9,3H245.5Zm17.685,4.037A0.948,0.948,0,0,0,263,122h-8a1,1,0,0,0,0,2h8a10.982,10.982,0,0,0,4.687,9H249a2,2,0,0,1-2-2V119h17.21A10.916,10.916,0,0,0,263.185,122.037Z" transform="translate(-244 -115)"/>
</svg>
