<svg xmlns="http://www.w3.org/2000/svg" width="46" height="31" viewBox="0 0 46 31">
  <defs>
    <style>
      .cls-1 {
        fill: #ccc;
        fill-rule: evenodd;
      }
    </style>
  </defs>
  <path id="圆角矩形_46" data-name="圆角矩形 46" class="cls-1" d="M184,335h-2a5,5,0,0,0-10,0h-3a2,2,0,0,1-2-2V315a2,2,0,0,1,2-2h9.736L186,322.11V333A2,2,0,0,1,184,335Zm-6.564-18H173a2,2,0,0,0-2,2v5a2,2,0,0,0,2,2h8a2,2,0,0,0,2-2A78.8,78.8,0,0,0,177.436,317ZM162,335h-4a5,5,0,0,0-10,0h-5a3,3,0,0,1-3-3V312a3,3,0,0,1,3-3h19a3,3,0,0,1,3,3v20A3,3,0,0,1,162,335Zm-9-3a4,4,0,1,1-4,4A4,4,0,0,1,153,332Zm24,0a4,4,0,1,1-4,4A4,4,0,0,1,177,332Z" transform="translate(-140 -309)"/>
</svg>
