<svg xmlns="http://www.w3.org/2000/svg" width="31" height="21" viewBox="0 0 31 21">
  <defs>
    <style>
      .cls-1 {
        fill: #434343;
        fill-rule: evenodd;
      }
    </style>
  </defs>
  <path id="圆角矩形_61_拷贝" data-name="圆角矩形 61 拷贝" class="cls-1" d="M189,39c0,0.01,0,.017,0,0.027a0.958,0.958,0,0,1-.28.688,0.913,0.913,0,0,1-.213.14l-4.86,4.86a0.96,0.96,0,0,1-1.357-1.358L185.642,40H177a1,1,0,0,1,0-2h8.642l-3.357-3.358a0.96,0.96,0,0,1,1.357-1.358l4.856,4.856a0.914,0.914,0,0,1,.217.144,0.957,0.957,0,0,1,.279.693C188.994,38.986,189,38.992,189,39Zm-19-6h7a1,1,0,0,1,0,2h-7A1,1,0,0,1,170,33Zm14.982-2.178c0,0.06.018,0.117,0.018,0.178H163V43a1,1,0,0,0,1,1h16v2H164a3,3,0,0,1-3-3V31a3,3,0,0,1,0-6h23A2.993,2.993,0,0,1,184.982,30.822ZM184,27H161a1,1,0,0,0,0,2h23A1,1,0,0,0,184,27Z" transform="translate(-158 -25)"/>
</svg>
