<svg xmlns="http://www.w3.org/2000/svg" width="29" height="34" viewBox="0 0 29 34">
  <defs>
    <style>
      .cls-1 {
        fill: #f75354;
        fill-rule: evenodd;
      }
    </style>
  </defs>
  <path id="奔跑小哥" class="cls-1" d="M157,117.006v-0.941a0.978,0.978,0,0,1,.848-1.069h4.312a0.978,0.978,0,0,1,.848,1.069v0.941H157Zm1.277-4.635-1.03.188V112.5H155.56a4.852,4.852,0,0,1,.059.569,5.336,5.336,0,0,1-10.666,0,4.963,4.963,0,0,1,.622-2.367,5.64,5.64,0,0,1,10.654.17l1.676-.307a0.965,0.965,0,0,1,1.134.728A0.922,0.922,0,0,1,158.272,112.371Zm-10.213,6.582h2.034a3.783,3.783,0,0,1,2.161,1.529,1.616,1.616,0,0,1,.3.124l3.23,2.091a1.563,1.563,0,0,1,.258.242l2.753-.144a1.149,1.149,0,1,1,.123,2.246l-3.455.181c-0.018,0-.032-0.006-0.049,0a1.653,1.653,0,0,1-1.188-.242l-1.6-1.033-1.6,6.552a3.623,3.623,0,0,1-.266.727l3.111,1.953a1.457,1.457,0,0,1,.66.95,1.44,1.44,0,0,1,.143.254l1.538,4.805a1.385,1.385,0,0,1-.97,1.764,1.524,1.524,0,0,1-1.85-.983l-1.436-4.481-3.657-2.3a3.728,3.728,0,0,1-2.708-.27c-0.008,0-.015.006-0.024,0.006l-5.32.373a1.549,1.549,0,0,1-1.121-.372,1.462,1.462,0,0,1-.272-0.12l-4.23-2.931a1.362,1.362,0,0,1-.329-1.972,1.55,1.55,0,0,1,2.088-.3l3.946,2.733,3.221-.225a3.529,3.529,0,0,1,.061-1.311l1.75-7.164A3.727,3.727,0,0,1,148.059,118.953ZM157,119.921V118H163v1.924a0.978,0.978,0,0,1-.848,1.069h-4.312A0.978,0.978,0,0,1,157,119.921Z" transform="translate(-134 -107)"/>
</svg>
