<svg xmlns="http://www.w3.org/2000/svg" xmlns:xlink="http://www.w3.org/1999/xlink" width="44" height="42" viewBox="0 0 44 42">
  <defs>
    <style>
      .cls-1 {
        filter: url(#filter);
      }

      .cls-2 {
        fill: #777;
      }

      .cls-2, .cls-3 {
        fill-rule: evenodd;
      }

      .cls-3 {
        fill: #414142;
      }
    </style>
    <filter id="filter" filterUnits="userSpaceOnUse">
      <feFlood result="flood" flood-color="#414142"/>
      <feComposite result="composite" operator="in" in2="SourceGraphic"/>
      <feBlend result="blend" in2="SourceGraphic"/>
    </filter>
  </defs>
  <g id="宝贝保_拷贝" data-name="宝贝保 拷贝" class="cls-1">
    <path id="圆角矩形_35" data-name="圆角矩形 35" class="cls-2" d="M330.938,1018a1.314,1.314,0,0,1,1.312,1.31v2.59a1.313,1.313,0,1,1-2.625,0v-2.59A1.314,1.314,0,0,1,330.938,1018Z" transform="translate(-309 -1018)"/>
    <path id="椭圆_4" data-name="椭圆 4" class="cls-2" d="M342.755,1035.39c-1.136-7.55-5.935-13.23-11.686-13.23h0.007c6.578,0,12.066,5.67,13.364,13.23h-1.685Zm-23.384,0h-1.658c1.291-7.51,6.726-13.16,13.254-13.23C325.256,1022.23,320.5,1027.88,319.371,1035.39Z" transform="translate(-309 -1018)"/>
    <path id="圆角矩形_34" data-name="圆角矩形 34" class="cls-2" d="M328.75,1060h-0.5a5.249,5.249,0,0,1-5.25-5.25V1054h0.092a1.479,1.479,0,0,1-.092-0.5,1.5,1.5,0,0,1,3,0,1.479,1.479,0,0,1-.092.5H326v0.25a2.019,2.019,0,0,0,4,0V1047h4v7.75A5.25,5.25,0,0,1,328.75,1060Z" transform="translate(-309 -1018)"/>
    <path id="矩形_24" data-name="矩形 24" class="cls-3" d="M349,1046a4,4,0,0,1-4-4h-0.006a0.495,0.495,0,0,0-.988,0H344a4,4,0,0,1-8,0h-0.006a0.495,0.495,0,0,0-.988,0H335a4,4,0,0,1-8,0h-0.006a0.495,0.495,0,0,0-.988,0H326a4,4,0,0,1-8,0h-0.006a0.495,0.495,0,0,0-.988,0H317a4,4,0,0,1-8,0,22,22,0,0,1,44,0A4,4,0,0,1,349,1046Zm1-4a19,19,0,0,0-38,0h0a1,1,0,0,0,2,0h0.04a3.5,3.5,0,0,1,6.92,0H321a1,1,0,0,0,2,0h0.04a3.5,3.5,0,0,1,6.92,0H330a1,1,0,0,0,2,0h0.04a3.5,3.5,0,0,1,6.92,0H339a1,1,0,0,0,2,0h0.04a3.5,3.5,0,0,1,6.92,0H348a1,1,0,0,0,2,0h0Z" transform="translate(-309 -1018)"/>
  </g>
</svg>
