<svg id="我要寄件" xmlns="http://www.w3.org/2000/svg" width="47" height="44" viewBox="0 0 47 44">
  <defs>
    <style>
      .cls-1 {
        fill: #414142;
      }

      .cls-1, .cls-2 {
        fill-rule: evenodd;
      }

      .cls-2 {
        fill: #fff;
      }
    </style>
  </defs>
  <path id="圆角矩形_29" data-name="圆角矩形 29" class="cls-1" d="M208,992H180a6,6,0,0,1-6-6V954a6,6,0,0,1,6-6h28a6,6,0,0,1,6,6v32A6,6,0,0,1,208,992Zm2-36a4,4,0,0,0-4-4H182a4,4,0,0,0-4,4v28a4,4,0,0,0,4,4h24a4,4,0,0,0,4-4V956Zm-5,30H183a3,3,0,0,1-3-3V957a3,3,0,0,1,3-3h22a3,3,0,0,1,3,3v26A3,3,0,0,1,205,986Zm-19-25a1,1,0,1,0,1,1A1,1,0,0,0,186,961Zm0,5a1,1,0,1,0,1,1A1,1,0,0,0,186,966Zm15-5H190a1,1,0,0,0,0,2h11A1,1,0,0,0,201,961Zm0,5H190a1,1,0,0,0,0,2h11A1,1,0,0,0,201,966Z" transform="translate(-174 -948)"/>
  <path id="形状_27" data-name="形状 27" class="cls-2" d="M198,980l1-6,16-16,6,4-16,17Z" transform="translate(-174 -948)"/>
  <path id="椭圆_7" data-name="椭圆 7" class="cls-1" d="M216.816,964.384L215.4,965.8l-2.829-2.829,1.414-1.414A2,2,0,1,1,216.816,964.384Zm-13.435,13.435-2.829-2.829,11.314-11.313,2.828,2.828Zm-4.236,1.407,0.706-3.528,2.822,2.822Z" transform="translate(-174 -948)"/>
</svg>
