<svg xmlns="http://www.w3.org/2000/svg" width="29" height="27" viewBox="0 0 29 27">
  <defs>
    <style>
      .cls-1 {
        fill: #434343;
        fill-rule: evenodd;
      }
    </style>
  </defs>
  <path id="扫描_拷贝_2" data-name="扫描 拷贝 2" class="cls-1" d="M379,44V41h29v3H379Zm26-11.516A1.484,1.484,0,0,0,403.516,31H399V29h5.686A2.314,2.314,0,0,1,407,31.314V37h-2V32.484Zm-23,0V37h-2V31.314A2.314,2.314,0,0,1,382.314,29H388v2h-4.516A1.484,1.484,0,0,0,382,32.484Zm0,20.032A1.484,1.484,0,0,0,383.484,54H388v2h-5.686A2.314,2.314,0,0,1,380,53.686V48h2v4.516Zm23,0V48h2v5.686A2.314,2.314,0,0,1,404.686,56H399V54h4.516A1.484,1.484,0,0,0,405,52.516Z" transform="translate(-379 -29)"/>
</svg>
