<svg xmlns="http://www.w3.org/2000/svg" width="39" height="37" viewBox="0 0 39 37">
  <defs>
    <style>
      .cls-1 {
        fill: #444446;
        fill-rule: evenodd;
      }
    </style>
  </defs>
  <path id="扫描_拷贝" data-name="扫描 拷贝" class="cls-1" d="M367.013,457.007v-4.014h38.974v4.014H367.013Zm33.975-15.125a1.87,1.87,0,0,0-1.87-1.87h-5.144V436h7.857A3.172,3.172,0,0,1,405,439.169v7.825h-4.014v-5.112Zm-28.976,0v5.112H368v-7.825A3.172,3.172,0,0,1,371.169,436h7.857v4.015h-5.144A1.87,1.87,0,0,0,372.012,441.882Zm0,25.236a1.87,1.87,0,0,0,1.87,1.87h5.144V473h-7.857A3.172,3.172,0,0,1,368,469.83v-6.824h4.014v4.112Zm28.976,0v-4.112H405v6.824A3.172,3.172,0,0,1,401.831,473h-7.857v-4.014h5.144A1.87,1.87,0,0,0,400.988,467.118Z" transform="translate(-367 -436)"/>
</svg>
