<svg xmlns="http://www.w3.org/2000/svg" width="29" height="27" viewBox="0 0 29 27">
  <defs>
    <style>
      .cls-1 {
        fill: #979797;
        fill-rule: evenodd;
      }
    </style>
  </defs>
  <path id="扫描" class="cls-1" d="M212,195v-3h29v3H212Zm26-11.516A1.483,1.483,0,0,0,236.516,182H232v-2h5.686A2.314,2.314,0,0,1,240,182.314V188h-2v-4.516Zm-23,0V188h-2v-5.686A2.314,2.314,0,0,1,215.314,180H221v2h-4.516A1.483,1.483,0,0,0,215,183.484Zm0,20.032A1.483,1.483,0,0,0,216.484,205H221v2h-5.686A2.314,2.314,0,0,1,213,204.686V199h2v4.516Zm23,0V199h2v5.686A2.314,2.314,0,0,1,237.686,207H232v-2h4.516A1.483,1.483,0,0,0,238,203.516Z" transform="translate(-212 -180)"/>
</svg>
