<svg id="未使用" xmlns="http://www.w3.org/2000/svg" width="67" height="67" viewBox="0 0 67 67">
  <defs>
    <style>
      .cls-1, .cls-2 {
        fill: #f75354;
        fill-opacity: 0;
        stroke: #434343;
        stroke-linejoin: round;
      }

      .cls-1 {
        stroke-width: 1px;
      }

      .cls-2 {
        stroke-width: 2px;
        fill-rule: evenodd;
      }
    </style>
  </defs>
  <rect id="圆角矩形_20_拷贝_3" data-name="圆角矩形 20 拷贝 3" class="cls-1" x="0.5" y="0.5" width="66" height="66" rx="33" ry="33"/>
  <path id="椭圆_28" data-name="椭圆 28" class="cls-2" d="M125,810c-0.187,0-.369-0.022-0.555-0.027-3.885.042-11.085,0.336-17.438-2.658,6.039-.658,5.633-1.154,2.586-5.308a2.225,2.225,0,0,1-.519-1.364A17.026,17.026,0,0,1,107,792.5,18.007,18.007,0,1,1,125,810ZM116.618,790.4a2.171,2.171,0,1,0,2.171,2.171A2.171,2.171,0,0,0,116.618,790.4Zm8.685,0a2.171,2.171,0,1,0,2.171,2.171A2.171,2.171,0,0,0,125.3,790.4Zm8.684,0a2.171,2.171,0,1,0,2.171,2.171A2.171,2.171,0,0,0,133.987,790.4Z" transform="translate(-90.5 -759.5)"/>
</svg>
