<svg id="未使用" xmlns="http://www.w3.org/2000/svg" width="67" height="67" viewBox="0 0 67 67">
  <defs>
    <style>
      .cls-1, .cls-2 {
        fill: #f75354;
        fill-opacity: 0;
        stroke: #434343;
        stroke-linejoin: round;
      }

      .cls-1 {
        stroke-width: 1px;
      }

      .cls-2 {
        stroke-width: 2px;
      }

      .cls-2, .cls-4 {
        fill-rule: evenodd;
      }

      .cls-3, .cls-4 {
        fill: #434343;
      }
    </style>
  </defs>
  <rect id="圆角矩形_20_拷贝_3" data-name="圆角矩形 20 拷贝 3" class="cls-1" x="0.5" y="0.5" width="66" height="66" rx="33" ry="33"/>
  <g id="组_44" data-name="组 44">
    <path id="椭圆_27" data-name="椭圆 27" class="cls-2" d="M35.074,799c-0.039-.5-0.074-0.994-0.074-1.5a18.007,18.007,0,1,1,36,0c0,0.506-.035,1-0.074,1.5H35.074Z" transform="translate(-19.5 -757.5)"/>
    <rect id="圆角矩形_52" data-name="圆角矩形 52" class="cls-3" x="12.5" y="43.5" width="42" height="2" rx="0.814" ry="0.814"/>
    <path id="圆角矩形_54" data-name="圆角矩形 54" class="cls-4" d="M57.186,776H54v3.186a0.814,0.814,0,0,1-.814.814H52.814A0.814,0.814,0,0,1,52,779.186V776H48.814A0.814,0.814,0,0,1,48,775.186v-0.372A0.814,0.814,0,0,1,48.814,774h8.372a0.814,0.814,0,0,1,.814.814v0.372A0.814,0.814,0,0,1,57.186,776Z" transform="translate(-19.5 -757.5)"/>
  </g>
</svg>
