<svg id="查件" xmlns="http://www.w3.org/2000/svg" width="46" height="46" viewBox="0 0 46 46">
  <defs>
    <style>
      .cls-1 {
        fill: #414142;
      }

      .cls-1, .cls-2 {
        fill-rule: evenodd;
      }

      .cls-2 {
        fill: none;
        stroke: #fff;
        stroke-width: 2px;
      }
    </style>
  </defs>
  <path id="圆角矩形_36" data-name="圆角矩形 36" class="cls-1" d="M63.3,985.925a2.391,2.391,0,1,1-3.377,3.387l-3.395-3.406a22.972,22.972,0,1,1,3.176-3.588ZM54.423,955.56a19,19,0,1,0,0,26.863A18.994,18.994,0,0,0,54.423,955.56ZM28.958,981A17,17,0,1,1,53,981,17,17,0,0,1,28.958,981Z" transform="translate(-18 -946)"/>
  <path id="椭圆_6" data-name="椭圆 6" class="cls-2" d="M28.25,966.006a12.329,12.329,0,0,0,1.23,8.332A11.04,11.04,0,0,0,37,980" transform="translate(-18 -946)"/>
</svg>
