<svg xmlns="http://www.w3.org/2000/svg" width="22.562" height="22.562" viewBox="0 0 22.562 22.562">
  <defs>
    <style>
      .cls-1 {
        fill: #979797;
        fill-rule: evenodd;
      }
    </style>
  </defs>
  <path id="椭圆_30_拷贝_3" data-name="椭圆 30 拷贝 3" class="cls-1" d="M45,585.719A1.281,1.281,0,1,1,43.719,587,1.281,1.281,0,0,1,45,585.719Zm-1.375-5A1.281,1.281,0,1,1,42.344,582,1.281,1.281,0,0,1,43.625,580.719Zm-3.75-3.625a1.281,1.281,0,1,1-1.281,1.281A1.281,1.281,0,0,1,39.875,577.094Zm3.75,13.812a1.282,1.282,0,1,1-1.281,1.281A1.281,1.281,0,0,1,43.625,590.906Zm-3.75,3.625a1.282,1.282,0,1,1-1.281,1.282A1.282,1.282,0,0,1,39.875,594.531ZM35,575.719A1.281,1.281,0,1,1,33.719,577,1.281,1.281,0,0,1,35,575.719Zm0,20A1.281,1.281,0,1,1,33.719,597,1.281,1.281,0,0,1,35,595.719Zm-10-10A1.281,1.281,0,1,1,23.719,587,1.281,1.281,0,0,1,25,585.719Zm1.375-5A1.281,1.281,0,1,1,25.094,582,1.281,1.281,0,0,1,26.375,580.719Zm3.75-3.625a1.281,1.281,0,1,1-1.281,1.281A1.281,1.281,0,0,1,30.125,577.094Zm-3.75,13.812a1.282,1.282,0,1,1-1.281,1.281A1.281,1.281,0,0,1,26.375,590.906Zm3.75,3.625a1.282,1.282,0,1,1-1.281,1.282A1.282,1.282,0,0,1,30.125,594.531Z" transform="translate(-23.719 -575.719)"/>
</svg>
