<svg xmlns="http://www.w3.org/2000/svg" width="22.281" height="22" viewBox="0 0 22.281 22">
  <defs>
    <style>
      .cls-1 {
        fill: #979797;
        fill-rule: evenodd;
      }
    </style>
  </defs>
  <path id="椭圆_30_拷贝" data-name="椭圆 30 拷贝" class="cls-1" d="M143,588.281A1.281,1.281,0,1,1,144.281,587,1.28,1.28,0,0,1,143,588.281Zm-1.375-5A1.281,1.281,0,1,1,142.906,582,1.28,1.28,0,0,1,141.625,583.281Zm-3.75,13.813a1.282,1.282,0,1,1,1.281-1.281A1.281,1.281,0,0,1,137.875,597.094Zm0-17.438a1.281,1.281,0,1,1,1.281-1.281A1.28,1.28,0,0,1,137.875,579.656ZM139,587a6,6,0,1,1-6-6A6,6,0,0,1,139,587Zm-6-4a4,4,0,1,0,4,4A4,4,0,0,0,133,583Zm-9,4a9,9,0,0,0,9,9v2a11,11,0,0,1,0-22v2A9,9,0,0,0,124,587Zm17.625,3.906a1.282,1.282,0,1,1-1.281,1.281A1.281,1.281,0,0,1,141.625,590.906Z" transform="translate(-122 -576)"/>
</svg>
