<svg xmlns="http://www.w3.org/2000/svg" width="28" height="13.281" viewBox="0 0 28 13.281">
  <defs>
    <style>
      .cls-1 {
        fill: #979797;
        fill-rule: evenodd;
      }
    </style>
  </defs>
  <path id="椭圆_30_拷贝_2" data-name="椭圆 30 拷贝 2" class="cls-1" d="M69,579.719A1.281,1.281,0,1,1,67.719,581,1.281,1.281,0,0,1,69,579.719Zm-5,1.375a1.281,1.281,0,1,1-1.281,1.281A1.281,1.281,0,0,1,64,581.094Zm-3.625,3.75a1.281,1.281,0,1,1-1.281,1.281A1.281,1.281,0,0,1,60.375,584.844Zm13.813-3.75a1.281,1.281,0,1,1-1.281,1.281A1.281,1.281,0,0,1,74.188,581.094Zm3.625,3.75a1.281,1.281,0,1,1-1.281,1.281A1.281,1.281,0,0,1,77.813,584.844ZM56,591H82a1,1,0,0,1,0,2H56A1,1,0,0,1,56,591Z" transform="translate(-55 -579.719)"/>
</svg>
