<svg xmlns="http://www.w3.org/2000/svg" width="30" height="30" viewBox="0 0 30 30">
  <defs>
    <style>
      .cls-1 {
        fill: #979797;
        fill-rule: evenodd;
      }
    </style>
  </defs>
  <path id="椭圆_5_拷贝" data-name="椭圆 5 拷贝" class="cls-1" d="M187,207a15,15,0,1,1,15-15A15,15,0,0,1,187,207Zm0-28a13,13,0,1,0,13,13A13,13,0,0,0,187,179Zm-1.036,18.4a1.7,1.7,0,0,1-.17.126,0.93,0.93,0,0,1-.087.131,1,1,0,0,1-1.414,0l-4.95-4.95a1,1,0,0,1,1.414-1.414L185,195.536l8.228-8.229a1.049,1.049,0,1,1,1.414,1.415Z" transform="translate(-172 -177)"/>
</svg>
