<svg xmlns="http://www.w3.org/2000/svg" width="33.968" height="48.25" viewBox="0 0 33.968 48.25">
  <defs>
    <style>
      .cls-1 {
        fill: #434343;
        fill-rule: evenodd;
      }
    </style>
  </defs>
  <path id="椭圆_11" data-name="椭圆 11" class="cls-1" d="M224.083,473.246S207.1,458.106,207.1,448.47a16.992,16.992,0,1,1,33.971,0C241.069,458.106,224.083,473.246,224.083,473.246Zm0-38.209c-7.183,0-13.007,6.08-13.007,13.582s13.007,18.6,13.007,18.6,13.008-11.1,13.008-18.6S231.267,435.037,224.083,435.037Zm0,19.1a5.033,5.033,0,1,1,4.992-5.033A5.013,5.013,0,0,1,224.08,454.136ZM216.1,468.968l1.025,0.937c-3.518.722-5.038,1.952-5.038,3.349,0,2.222,5.372,3.018,12,3.018s12-.8,12-3.018c0-1.4-1.52-2.627-5.038-3.349l1.025-.937c4.785,0.956,8.013,2.74,8.013,4.789,0,3.055-7.163,5.532-16,5.532s-16-2.477-16-5.532C208.084,471.708,211.312,469.924,216.1,468.968Z" transform="translate(-207.094 -431.031)"/>
</svg>
