<svg xmlns="http://www.w3.org/2000/svg" width="22.281" height="22" viewBox="0 0 22.281 22">
  <defs>
    <style>
      .cls-1 {
        fill: #979797;
        fill-rule: evenodd;
      }
    </style>
  </defs>
  <path id="椭圆_30" data-name="椭圆 30" class="cls-1" d="M113,588.281A1.281,1.281,0,1,1,114.281,587,1.28,1.28,0,0,1,113,588.281Zm-1.375-5A1.281,1.281,0,1,1,112.906,582,1.28,1.28,0,0,1,111.625,583.281Zm-3.75,13.813a1.282,1.282,0,1,1,1.281-1.281A1.281,1.281,0,0,1,107.875,597.094Zm0-17.438a1.281,1.281,0,1,1,1.281-1.281A1.28,1.28,0,0,1,107.875,579.656ZM92,587a11,11,0,0,1,11-11v2a9,9,0,0,0,0,18v2A11,11,0,0,1,92,587Zm19.625,3.906a1.282,1.282,0,1,1-1.281,1.281A1.281,1.281,0,0,1,111.625,590.906Z" transform="translate(-92 -576)"/>
</svg>
