<svg xmlns="http://www.w3.org/2000/svg" width="48.344" height="44" viewBox="0 0 48.344 44">
  <defs>
    <style>
      .cls-1 {
        fill: #414142;
        fill-rule: evenodd;
      }
    </style>
  </defs>
  <path id="椭圆_8_拷贝" data-name="椭圆 8 拷贝" class="cls-1" d="M116,991a21.851,21.851,0,0,1-13.507-4.664l2.239-3.312a18,18,0,1,0-6.277-18C98.3,965.016,98.154,965,98,965a9.814,9.814,0,0,0-3.732.74A21.988,21.988,0,1,1,116,991Zm-15.834-25.754a16.279,16.279,0,1,1,5.559,16.384A10.237,10.237,0,0,0,108,975.172,10.134,10.134,0,0,0,100.166,965.246ZM115,968.931a0.979,0.979,0,0,0,.27.826l3.535,3.536a1,1,0,0,0,1.414-1.414L117,968.659V961a1,1,0,0,0-2,0v7.931Zm-8.656,6.225a8.484,8.484,0,0,1-3.173,6.627h0.2l-5.376,7.955-5.377-7.955h0.213A8.411,8.411,0,1,1,106.344,975.156Zm-11.688.016A3.344,3.344,0,1,0,98,971.781,3.367,3.367,0,0,0,94.656,975.172Z" transform="translate(-89.656 -947)"/>
</svg>
