<svg xmlns="http://www.w3.org/2000/svg" width="23" height="23" viewBox="0 0 23 23">
  <defs>
    <style>
      .cls-1 {
        fill: #434343;
        fill-rule: evenodd;
      }
    </style>
  </defs>
  <path id="椭圆_25" data-name="椭圆 25" class="cls-1" d="M460.5,665A11.5,11.5,0,1,1,472,653.5,11.5,11.5,0,0,1,460.5,665Zm0-20.909a9.409,9.409,0,1,0,9.409,9.409A9.408,9.408,0,0,0,460.5,644.091Zm3.7,13.451-4.245-3.137a0.925,0.925,0,0,1-.139-0.126,0.985,0.985,0,0,1-.083-0.075,0.974,0.974,0,0,1-.156-0.232,0.84,0.84,0,0,1-.054-0.113,1.027,1.027,0,0,1-.054-0.27,0.876,0.876,0,0,1-.018-0.089v-4.182a1.045,1.045,0,0,1,2.09,0v3.7l3.678,2.717a1.061,1.061,0,0,1,.372,1.428A1,1,0,0,1,464.2,657.542Z" transform="translate(-449 -642)"/>
</svg>
