<svg xmlns="http://www.w3.org/2000/svg" width="49" height="41.25" viewBox="0 0 49 41.25">
  <defs>
    <style>
      .cls-1 {
        fill: #414142;
        fill-rule: evenodd;
      }
    </style>
  </defs>
  <path id="椭圆_20" data-name="椭圆 20" class="cls-1" d="M346.542,474.267H302.566a2.511,2.511,0,0,1-2.142-3.8c1.227-2.244,20.891-34.24,21.993-36.137a2.465,2.465,0,0,1,4.331,0c1.5,2.635,21.077,34.513,21.948,36.058A2.525,2.525,0,0,1,346.542,474.267Zm-4.656-6.771c-0.592-1.091-14.966-24.683-15.988-26.544a1.431,1.431,0,0,0-2.665,0c-0.75,1.34-15.154,24.959-15.989,26.544a1.974,1.974,0,0,0,1.777,2.746H340.11A1.926,1.926,0,0,0,341.886,467.5Zm-17.307.734a2.515,2.515,0,1,1,2.5-2.514A2.507,2.507,0,0,1,324.579,468.23Zm0-7.041a1.5,1.5,0,0,1-1.5-1.509V446.6a1.5,1.5,0,1,1,3,0V459.68A1.5,1.5,0,0,1,324.579,461.189Z" transform="translate(-300.094 -433.031)"/>
</svg>
