<svg xmlns="http://www.w3.org/2000/svg" xmlns:xlink="http://www.w3.org/1999/xlink" width="46" height="46.281" viewBox="0 0 46 46.281">
  <defs>
    <style>
      .cls-1 {
        fill: #fff;
        fill-rule: evenodd;
        filter: url(#filter);
      }
    </style>
    <filter id="filter" x="141.094" y="431" width="46" height="46.281" filterUnits="userSpaceOnUse">
      <feFlood result="flood" flood-color="#414142"/>
      <feComposite result="composite" operator="in" in2="SourceGraphic"/>
      <feBlend result="blend" in2="SourceGraphic"/>
    </filter>
  </defs>
  <path id="椭圆_7_拷贝_2" data-name="椭圆 7 拷贝 2" class="cls-1" d="M164.088,477.276a23.143,23.143,0,1,1,23-23.142A23.071,23.071,0,0,1,164.088,477.276Zm1-4.092a19.018,19.018,0,0,0,17.93-18.041h-4a15.018,15.018,0,0,1-13.934,14.028v4.013Zm-1.988,0v-4.013a15.017,15.017,0,0,1-13.957-14.029h-4A19.018,19.018,0,0,0,163.1,473.185Zm0-38.114a19.018,19.018,0,0,0-17.954,18.075h4A15.017,15.017,0,0,1,163.1,439.105v-4.034Zm0,9.062v-3.249a13.261,13.261,0,0,0-12.216,12.262h3.263c-0.032.329-.05,0.661-0.05,1s0.018,0.67.05,1H150.89A13.264,13.264,0,0,0,163.1,467.394v-3.238c0.323,0.031.651,0.05,0.983,0.05a9.814,9.814,0,0,0,1-.052v3.238a13.262,13.262,0,0,0,12.193-12.249h-3.262c0.032-.329.05-0.661,0.05-1s-0.018-.669-0.05-1h3.262a13.262,13.262,0,0,0-12.193-12.261v3.249c-0.33-.033-0.666-0.051-1-0.051S163.428,444.1,163.1,444.133Zm1.988-9.06v4.033a15.019,15.019,0,0,1,13.935,14.04h4A19.017,19.017,0,0,0,165.093,435.073Zm2.992,19.056a4,4,0,1,1-4-4.029A4.013,4.013,0,0,1,168.085,454.129Z" transform="translate(-141.094 -431)"/>
</svg>
