<svg xmlns="http://www.w3.org/2000/svg" xmlns:xlink="http://www.w3.org/1999/xlink" width="34" height="38" viewBox="0 0 34 38">
  <defs>
    <style>
      .cls-1 {
        fill: #777;
        fill-rule: evenodd;
        filter: url(#filter);
      }
    </style>
    <filter id="filter" x="379" y="1020" width="34" height="38" filterUnits="userSpaceOnUse">
      <feFlood result="flood" flood-color="#414142"/>
      <feComposite result="composite" operator="in" in2="SourceGraphic"/>
      <feBlend result="blend" in2="SourceGraphic"/>
    </filter>
  </defs>
  <path id="活动专区" class="cls-1" d="M411,1039.82V1055a3,3,0,0,1-3,3H384a3,3,0,0,1-3-3v-15.18a3.006,3.006,0,0,1-2-2.82v-7a3,3,0,0,1,3-3h3.409c1.441,0.04,1.261,0,2.531,0H410a3,3,0,0,1,3,3v7A3.006,3.006,0,0,1,411,1039.82ZM397,1053h8a2,2,0,0,0,2-2v-13H397v15Zm-2-22H385a2,2,0,0,0-2,2v1a2,2,0,0,0,2,2h10v-5Zm0,7H385v13a2,2,0,0,0,2,2h8v-15Zm14-5a2,2,0,0,0-2-2H397v5h10a2,2,0,0,0,2-2v-1Zm-0.087-6H406.6c0.57-.42.476-1-0.007-1.63-1.045-1.37-1.4-1.86-3.375-.82-1.577.83-4.143,2.41-4.208,2.45h-6.017c-0.065-.04-2.63-1.62-4.207-2.45-1.975-1.04-2.331-.55-3.375.82-0.483.63-.577,1.21-0.007,1.63h-2.315c-3,0-2.546-1.19,0-4.85s3.976-1.95,6.849,0c2.386,1.62,4.6,2.97,6.064,3.83,1.462-.86,3.678-2.21,6.064-3.83,2.873-1.95,4.3-3.66,6.849,0S411.91,1027,408.913,1027Z" transform="translate(-379 -1020)"/>
</svg>
