<svg xmlns="http://www.w3.org/2000/svg" xmlns:xlink="http://www.w3.org/1999/xlink" width="42" height="42" viewBox="0 0 42 42">
  <defs>
    <style>
      .cls-1 {
        fill: #777;
        fill-rule: evenodd;
        filter: url(#filter);
      }
    </style>
    <filter id="filter" x="252" y="1017" width="42" height="42" filterUnits="userSpaceOnUse">
      <feFlood result="flood" flood-color="#414142"/>
      <feComposite result="composite" operator="in" in2="SourceGraphic"/>
      <feBlend result="blend" in2="SourceGraphic"/>
    </filter>
  </defs>
  <path id="消息设置" class="cls-1" d="M292,1040h-1.108a17.923,17.923,0,0,1-3.743,9.12l0.7,0.7a2.143,2.143,0,1,1-3.03,3.03l-0.7-.7a17.875,17.875,0,0,1-9.131,3.74v0.97a1.992,1.992,0,1,1-3.974,0v-0.97a17.875,17.875,0,0,1-9.131-3.74l-0.7.7a2.143,2.143,0,1,1-3.03-3.03l0.7-.7a17.923,17.923,0,0,1-3.743-9.12H254a2,2,0,0,1,0-4h1.108a17.923,17.923,0,0,1,3.743-9.12l-0.7-.7a2.143,2.143,0,1,1,3.03-3.03l0.7,0.7a17.875,17.875,0,0,1,9.131-3.74v-0.97a1.992,1.992,0,1,1,3.974,0v0.97a17.875,17.875,0,0,1,9.131,3.74l0.7-.7a2.143,2.143,0,1,1,3.03,3.03l-0.7.7a17.923,17.923,0,0,1,3.743,9.12H292A2,2,0,0,1,292,1040Zm-19-16a14,14,0,1,0,14,14A14,14,0,0,0,273,1024Zm0,20a6,6,0,1,1,6-6A6,6,0,0,1,273,1044Zm0-10a4,4,0,1,0,4,4A4,4,0,0,0,273,1034Z" transform="translate(-252 -1017)"/>
</svg>
