<svg xmlns="http://www.w3.org/2000/svg" width="21.188" height="26.563" viewBox="0 0 21.188 26.563">
  <defs>
    <style>
      .cls-1 {
        fill: #434343;
        fill-rule: evenodd;
      }
    </style>
  </defs>
  <path id="矩形_23" data-name="矩形 23" class="cls-1" d="M413.361,642.5c0.059,0.081.126,0.157,0.182,0.24l-0.253.076-0.116.514a0.909,0.909,0,0,1-1.07.643,0.8,0.8,0,0,1-.586-0.626l-0.044.014a6.413,6.413,0,0,0-10.206.351l-2.072-.565a8.515,8.515,0,0,1,11.56-3.009,8.338,8.338,0,0,1,1.2.859l0.406-1.8a0.91,0.91,0,0,1,1.071-.644,0.824,0.824,0,0,1,.579,1.049Zm3.746,12L406.5,665.107,395.893,654.5,406.5,643.893ZM406.5,662.278l7.778-7.778-7.778-7.778-7.778,7.778Z" transform="translate(-395.906 -638.531)"/>
</svg>
