<svg id="组_47" data-name="组 47" xmlns="http://www.w3.org/2000/svg" width="22" height="22.656" viewBox="0 0 22 22.656">
  <defs>
    <style>
      .cls-1 {
        fill: #434343;
      }

      .cls-1, .cls-2 {
        fill-rule: evenodd;
      }

      .cls-2 {
        fill: none;
        stroke: #434343;
        stroke-linecap: round;
        stroke-linejoin: round;
        stroke-width: 2px;
      }
    </style>
  </defs>
  <path id="圆角矩形_51_拷贝" data-name="圆角矩形 51 拷贝" class="cls-1" d="M38,47H20a2,2,0,0,1-2-2V33a2,2,0,0,1,2-2H38a2,2,0,0,1,2,2V45A2,2,0,0,1,38,47ZM20,44a1,1,0,0,0,1,1h7V38H20v6ZM38,34a1,1,0,0,0-1-1H21a1,1,0,0,0-1,1v2H38V34Zm0,4H30v7h7a1,1,0,0,0,1-1V38Z" transform="translate(-18 -24.344)"/>
  <path id="形状_24" data-name="形状 24" class="cls-2" d="M29,32s-2.656-4.759-4-6-2.082-.6-3,1-1.991,5,1,5h6Z" transform="translate(-18 -24.344)"/>
  <path id="形状_24_拷贝" data-name="形状 24 拷贝" class="cls-2" d="M29,32s2.656-4.759,4-6,2.082-.6,3,1,1.991,5-1,5H29Z" transform="translate(-18 -24.344)"/>
</svg>
