<svg id="组_1_拷贝" data-name="组 1 拷贝" xmlns="http://www.w3.org/2000/svg" width="60" height="60" viewBox="0 0 60 60">
  <defs>
    <style>
      .cls-1 {
        fill: #cacaca;
      }

      .cls-2 {
        fill: #fff;
        fill-rule: evenodd;
      }
    </style>
  </defs>
  <circle id="椭圆_1" data-name="椭圆 1" class="cls-1" cx="30" cy="30" r="30"/>
  <path id="圆角矩形_3" data-name="圆角矩形 3" class="cls-2" d="M392.663,957.9l-10.418,9.766a1.148,1.148,0,0,1-1.6,0l-5.308-5.227a1.1,1.1,0,0,1,0-1.578,1.146,1.146,0,0,1,1.6,0l4.526,4.457,9.6-9a1.146,1.146,0,0,1,1.6,0A1.1,1.1,0,0,1,392.663,957.9ZM378,957H368a1,1,0,0,1,0-2h10A1,1,0,0,1,378,957Zm0-12H368a1,1,0,0,1,0-2h10A1,1,0,0,1,378,945Zm0,6H368a1,1,0,0,1,0-2h10A1,1,0,0,1,378,951Zm5-12H363v26h8.5l2.2,2H363a2,2,0,0,1-2-2V939a2,2,0,0,1,2-2h20a2,2,0,0,1,2,2v16.769l-2,1.693V939Z" transform="translate(-344 -922)"/>
</svg>
