<svg xmlns="http://www.w3.org/2000/svg" xmlns:xlink="http://www.w3.org/1999/xlink" width="27" height="27" viewBox="0 0 27 27">
  <defs>
    <style>
      .cls-1 {
        filter: url(#filter);
      }

      .cls-2, .cls-3 {
        fill: #e2e3e8;
      }

      .cls-2 {
        fill-opacity: 0;
        stroke: #979797;
        stroke-linejoin: round;
        stroke-width: 2px;
      }

      .cls-3 {
        fill-rule: evenodd;
      }
    </style>
    <filter id="filter" filterUnits="userSpaceOnUse">
      <feFlood result="flood" flood-color="#f66465"/>
      <feComposite result="composite" operator="in" in2="SourceGraphic"/>
      <feBlend result="blend" in2="SourceGraphic"/>
    </filter>
  </defs>
  <g id="组_30_拷贝_4" data-name="组 30 拷贝 4" class="cls-1">
    <circle id="椭圆_21" data-name="椭圆 21" class="cls-2" cx="13.5" cy="13.5" r="10.5"/>
    <path id="圆角矩形_60" data-name="圆角矩形 60" class="cls-3" d="M166.991,697.054c0,0.016.009,0.03,0.009,0.046a0.779,0.779,0,0,1-.02.1,0.8,0.8,0,0,1-.046.227c-0.011.027-.025,0.049-0.038,0.074a0.674,0.674,0,0,1-.22.276,0.853,0.853,0,0,1-.134.113,0.6,0.6,0,0,1-.072.023,0.83,0.83,0,0,1-.113.037,0.923,0.923,0,0,1-.235.046c-0.014,0-.025.008-0.039,0.008h-9.166c-0.014,0-.025-0.007-0.039-0.008a0.914,0.914,0,0,1-.235-0.046,0.83,0.83,0,0,1-.113-0.037,0.6,0.6,0,0,1-.072-0.023,0.853,0.853,0,0,1-.134-0.113,0.674,0.674,0,0,1-.22-0.276c-0.013-.025-0.027-0.047-0.038-0.074a0.8,0.8,0,0,1-.046-0.227,0.779,0.779,0,0,1-.02-0.1c0-.016.009-0.03,0.009-0.046a0.757,0.757,0,0,1,.022-0.1,0.871,0.871,0,0,1,.2-0.428l4.478-7.089c0.01-.015.026-0.024,0.037-0.039a0.822,0.822,0,0,1,.12-0.131,0.928,0.928,0,0,1,.137-0.115c0.016-.01.025-0.026,0.042-0.035a0.835,0.835,0,0,1,.107-0.035,0.878,0.878,0,0,1,.178-0.057,1.253,1.253,0,0,1,.346,0,0.878,0.878,0,0,1,.178.057,0.835,0.835,0,0,1,.107.035c0.017,0.009.026,0.025,0.042,0.035a0.879,0.879,0,0,1,.137.115,0.822,0.822,0,0,1,.12.131c0.011,0.015.027,0.024,0.037,0.039l4.478,7.089a0.871,0.871,0,0,1,.2.428A0.757,0.757,0,0,1,166.991,697.054Zm-2.564-.854-2.927-4.632-2.927,4.632h5.854Z" transform="translate(-148 -681)"/>
  </g>
</svg>
