<svg id="组_35" data-name="组 35" xmlns="http://www.w3.org/2000/svg" width="60" height="60" viewBox="0 0 60 60">
  <defs>
    <style>
      .cls-1 {
        fill: #cacaca;
      }

      .cls-2 {
        fill: #fff;
        fill-rule: evenodd;
      }
    </style>
  </defs>
  <circle id="椭圆_23" data-name="椭圆 23" class="cls-1" cx="30" cy="30" r="30"/>
  <path id="圆角矩形_49" data-name="圆角矩形 49" class="cls-2" d="M132,891h-3a2,2,0,0,1-2-2V874.5a8.5,8.5,0,0,0-8.5-8.5h-1a8.5,8.5,0,0,0-8.5,8.5v11a8.5,8.5,0,0,0,5,7.74v2a11.028,11.028,0,0,1-5.559-4.857A1.993,1.993,0,0,1,107,891h-3a2,2,0,0,1-2-2V878a2,2,0,0,1,2-2h3v-1a11,11,0,0,1,22,0v1h3a2,2,0,0,1,2,2v11A2,2,0,0,1,132,891Zm-25-11.5a1.5,1.5,0,0,0-3,0v8a1.5,1.5,0,0,0,3,0v-8Zm25,0a1.5,1.5,0,0,0-3,0v8a1.5,1.5,0,0,0,3,0v-8ZM116.5,892h4a2.5,2.5,0,0,1,0,5h-4A2.5,2.5,0,0,1,116.5,892Z" transform="translate(-88 -850)"/>
</svg>
