<svg id="组_36" data-name="组 36" xmlns="http://www.w3.org/2000/svg" width="67" height="67" viewBox="0 0 67 67">
  <defs>
    <style>
      .cls-1, .cls-2 {
        fill: #f75354;
        fill-opacity: 0;
        stroke: #434343;
        stroke-linejoin: round;
      }

      .cls-1 {
        stroke-width: 1px;
      }

      .cls-2 {
        stroke-width: 2px;
        fill-rule: evenodd;
      }
    </style>
  </defs>
  <rect id="圆角矩形_20_拷贝_3" data-name="圆角矩形 20 拷贝 3" class="cls-1" x="0.5" y="0.5" width="66" height="66" rx="33" ry="33"/>
  <path id="形状_13" data-name="形状 13" class="cls-2" d="M486.756,801.219l-0.147-.209c0.077,0.072-.38-0.458-0.38-0.458a14.275,14.275,0,0,0-1.564-1.427,37.233,37.233,0,0,0-3-2.231c-1.1-.718-1.868-1.181-1.821-1.151l-0.806-.4a2.02,2.02,0,0,0-1.363-.05,1.668,1.668,0,0,0-.864.69,5.2,5.2,0,0,0-.932,1.415c-0.285.515-.619,1.241-1.023,1.955a2.545,2.545,0,0,1-3.386,1.13,31.582,31.582,0,0,1-6.489-4.628,21.093,21.093,0,0,1-5.107-6.45,2.16,2.16,0,0,1,.968-2.667c1.12-.542,1.766-0.679,2.476-1.1,0.642-.394.517-0.264,1.262-0.75,0.031-.023.27-0.23,0.3-0.253l0.1-.1a1.382,1.382,0,0,0,.354-1.6l-0.1-.3a27.954,27.954,0,0,0-1.365-2.6,27.126,27.126,0,0,0-1.566-2.305,7.639,7.639,0,0,0-2.525-2.3s-0.334-.177-0.506-0.25a2.273,2.273,0,0,0-1.871.048,9.6,9.6,0,0,0-3,1.912c-2.16,1.759-3.675,4.2-3.374,6.334,0.471,3.332,4.7,10.678,10.232,15.873s13.352,9.174,16.9,9.608c2.381,0.3,4.4-.9,6.408-2.732a9.779,9.779,0,0,0,2.106-2.71,2.575,2.575,0,0,0,.077-2.293h0Zm0,0" transform="translate(-435.5 -758.5)"/>
</svg>
