<svg id="组_1_副本_拷贝" data-name="组 1 副本 拷贝" xmlns="http://www.w3.org/2000/svg" width="60" height="60" viewBox="0 0 60 60">
  <defs>
    <style>
      .cls-1 {
        fill: #cacaca;
      }

      .cls-2 {
        fill: #fff;
        fill-rule: evenodd;
      }
    </style>
  </defs>
  <circle id="椭圆_1" data-name="椭圆 1" class="cls-1" cx="30" cy="30" r="30"/>
  <g id="icon寄件人">
    <path id="圆角矩形_3" data-name="圆角矩形 3" class="cls-2" d="M464.663,956.9l-10.418,9.766a1.148,1.148,0,0,1-1.6,0l-5.308-5.227a1.1,1.1,0,0,1,0-1.578,1.146,1.146,0,0,1,1.6,0l4.526,4.457,9.6-9a1.146,1.146,0,0,1,1.6,0A1.1,1.1,0,0,1,464.663,956.9Z" transform="translate(-417 -919)"/>
    <path id="椭圆_13" data-name="椭圆 13" class="cls-2" d="M455.522,956A13.921,13.921,0,0,0,446,952c-4.973,0-11,3.513-11,7.257,0,3.335,3.727,4.489,9,4.7v2.011c-7.3-.2-11-1.677-11-6.97,0-4.926,6.04-9,13-9,5.377,0,10.325,2.526,12.2,6h-2.676Z" transform="translate(-417 -919)"/>
    <path id="椭圆_14" data-name="椭圆 14" class="cls-2" d="M452.57,944.4a7,7,0,1,0-7.54,4.527L445,949l3.632,1.614a9.025,9.025,0,1,1,6-6.069Z" transform="translate(-417 -919)"/>
    <path id="圆角矩形_5" data-name="圆角矩形 5" class="cls-2" d="M449,946h2a1,1,0,0,1,0,2h-2A1,1,0,0,1,449,946Z" transform="translate(-417 -919)"/>
    <path id="椭圆_14-2" data-name="椭圆 14" class="cls-2" d="M450.625,946.49a3.489,3.489,0,0,0,6.31-2.63l0.938-.39a4.49,4.49,0,0,1-8.183,3.409Z" transform="translate(-417 -919)"/>
    <path id="圆角矩形_4" data-name="圆角矩形 4" class="cls-2" d="M457.5,939a1.5,1.5,0,0,1,1.5,1.5v4a1.5,1.5,0,0,1-3,0v-4A1.5,1.5,0,0,1,457.5,939Zm-23,0a1.5,1.5,0,0,1,1.5,1.5v4a1.5,1.5,0,0,1-3,0v-4A1.5,1.5,0,0,1,434.5,939Z" transform="translate(-417 -919)"/>
    <path id="椭圆_15" data-name="椭圆 15" class="cls-2" d="M457,946.789V943h-0.05c0.029-.33.05-0.662,0.05-1a11,11,0,0,0-22,0c0,0.338.021,0.67,0.05,1h-1c-0.027-.331-0.05-0.662-0.05-1A12,12,0,1,1,457,946.789Z" transform="translate(-417 -919)"/>
  </g>
</svg>
