<svg id="组_36" data-name="组 36" xmlns="http://www.w3.org/2000/svg" xmlns:xlink="http://www.w3.org/1999/xlink" width="60" height="60" viewBox="0 0 60 60">
  <defs>
    <style>
      .cls-1 {
        fill: #cacaca;
      }

      .cls-2 {
        fill: #595959;
        fill-rule: evenodd;
        filter: url(#filter);
      }
    </style>
    <filter id="filter" x="171" y="869" width="33" height="29" filterUnits="userSpaceOnUse">
      <feFlood result="flood" flood-color="#fff"/>
      <feComposite result="composite" operator="in" in2="SourceGraphic"/>
      <feBlend result="blend" in2="SourceGraphic"/>
    </filter>
  </defs>
  <circle id="椭圆_23_拷贝_2" data-name="椭圆 23 拷贝 2" class="cls-1" cx="30" cy="30" r="30"/>
  <path id="形状_16" data-name="形状 16" class="cls-2" d="M202,892H190l-9,6-2.919-.009L179,892h-6a2.406,2.406,0,0,1-2-2l0.014-19.438a1.569,1.569,0,0,1,1.571-1.568h29.836a1.569,1.569,0,0,1,1.57,1.568L204,890A2.406,2.406,0,0,1,202,892Zm0-20a0.829,0.829,0,0,0-1-1H174a0.829,0.829,0,0,0-1,1v17a0.829,0.829,0,0,0,1,1h7l-1,6,10-6h11a0.829,0.829,0,0,0,1-1V872Zm-7.5,9.986a1.495,1.495,0,1,1,1.511-1.5A1.5,1.5,0,0,1,194.5,881.986Zm-7,0a1.495,1.495,0,1,1,1.5-1.5A1.495,1.495,0,0,1,187.5,881.986Zm-7.011,0a1.495,1.495,0,1,1,1.5-1.5A1.5,1.5,0,0,1,180.492,881.986Z" transform="translate(-157 -850)"/>
</svg>
