<svg id="组_32" data-name="组 32" xmlns="http://www.w3.org/2000/svg" width="60" height="60" viewBox="0 0 60 60">
  <defs>
    <style>
      .cls-1 {
        fill: #cacaca;
      }

      .cls-2 {
        fill: #fff;
        fill-rule: evenodd;
      }
    </style>
  </defs>
  <circle id="椭圆_23_拷贝" data-name="椭圆 23 拷贝" class="cls-1" cx="30" cy="30" r="30"/>
  <path id="扫描" class="cls-2" d="M314,880v-3h30v3H314Zm4-11.645V873h-2v-5.686A2.314,2.314,0,0,1,318.314,865H324v2h-4.645A1.355,1.355,0,0,0,318,868.355ZM314,880v-3h30v3H314Zm27-11.645V873h2v-5.686A2.314,2.314,0,0,0,340.686,865H335v2h4.645A1.355,1.355,0,0,1,341,868.355ZM314,880v-3h30v3H314Zm27,8.645V884h2v5.686A2.314,2.314,0,0,1,340.686,892H335v-2h4.645A1.355,1.355,0,0,0,341,888.645Zm-23,0V884h-2v5.686A2.314,2.314,0,0,0,318.314,892H324v-2h-4.645A1.355,1.355,0,0,1,318,888.645Z" transform="translate(-299 -848)"/>
</svg>
