<svg xmlns="http://www.w3.org/2000/svg" xmlns:xlink="http://www.w3.org/1999/xlink" width="66" height="66" viewBox="0 0 66 66">
  <defs>
    <style>
      .cls-1 {
        filter: url(#filter);
      }

      .cls-2 {
        fill: #f75354;
        fill-opacity: 0;
        stroke-linejoin: round;
        stroke-width: 1px;
      }

      .cls-2, .cls-3 {
        stroke: #434343;
      }

      .cls-3 {
        fill: none;
        stroke-width: 2px;
        fill-rule: evenodd;
      }
    </style>
    <filter id="filter" filterUnits="userSpaceOnUse">
      <feFlood result="flood" flood-color="#434343"/>
      <feComposite result="composite" operator="in" in2="SourceGraphic"/>
      <feBlend result="blend" in2="SourceGraphic"/>
    </filter>
  </defs>
  <g id="组_43_拷贝_2" data-name="组 43 拷贝 2" class="cls-1">
    <rect id="圆角矩形_20_拷贝_3" data-name="圆角矩形 20 拷贝 3" class="cls-2" x="0.5" y="0.5" width="65" height="65" rx="32.5" ry="32.5"/>
    <path id="圆角矩形_55" data-name="圆角矩形 55" class="cls-3" d="M217,789.852v16.019A4.129,4.129,0,0,1,212.871,810H189.129A4.129,4.129,0,0,1,185,805.871V782.129A4.129,4.129,0,0,1,189.129,778h16.019" transform="translate(-167.5 -760.5)"/>
    <path id="矩形_21" data-name="矩形 21" class="cls-3" d="M211.3,780.9l2.844,2.843-13.9,13.9L197.4,794.8Z" transform="translate(-167.5 -760.5)"/>
    <path id="矩形_22" data-name="矩形 22" class="cls-3" d="M215.545,776.653l2.843,2.843-2.121,2.121-2.843-2.843Z" transform="translate(-167.5 -760.5)"/>
    <path id="多边形_1" data-name="多边形 1" class="cls-3" d="M196.014,798.99v-2l1.974,2h-1.974Z" transform="translate(-167.5 -760.5)"/>
  </g>
</svg>
