<svg id="组_33" data-name="组 33" xmlns="http://www.w3.org/2000/svg" width="60" height="60" viewBox="0 0 60 60">
  <defs>
    <style>
      .cls-1 {
        fill: #cacaca;
      }

      .cls-2 {
        fill: #fff;
        fill-rule: evenodd;
      }
    </style>
  </defs>
  <circle id="椭圆_23" data-name="椭圆 23" class="cls-1" cx="30" cy="30" r="30"/>
  <path id="圆角矩形_38_拷贝" data-name="圆角矩形 38 拷贝" class="cls-2" d="M55,867h8a2,2,0,0,1,2,2v8a2,2,0,0,1-2,2H55a2,2,0,0,1-2-2v-8A2,2,0,0,1,55,867Zm1,2h6a1,1,0,0,1,1,1v6a1,1,0,0,1-1,1H56a1,1,0,0,1-1-1v-6A1,1,0,0,1,56,869Zm3,3a1,1,0,1,1-1,1A1,1,0,0,1,59,872Zm-5,9a1,1,0,0,1,1,1v1a1,1,0,0,1-2,0v-1A1,1,0,0,1,54,881Zm5,0a1,1,0,0,1,1,1v6a1,1,0,0,1-2,0v-6A1,1,0,0,1,59,881Zm5,0a1,1,0,0,1,1,1v3a1,1,0,0,1-2,0v-3A1,1,0,0,1,64,881Zm-10,4a1,1,0,0,1,1,1v6a1,1,0,0,1-2,0v-6A1,1,0,0,1,54,885Zm5,5a1,1,0,0,1,1,1v1a1,1,0,0,1-2,0v-1A1,1,0,0,1,59,890Zm5-3a1,1,0,0,1,1,1v4a1,1,0,0,1-2,0v-4A1,1,0,0,1,64,887ZM41,867h8a2,2,0,0,1,2,2v8a2,2,0,0,1-2,2H41a2,2,0,0,1-2-2v-8A2,2,0,0,1,41,867Zm1,2h6a1,1,0,0,1,1,1v6a1,1,0,0,1-1,1H42a1,1,0,0,1-1-1v-6A1,1,0,0,1,42,869Zm3,3a1,1,0,1,1-1,1A1,1,0,0,1,45,872Zm-4,9h8a2,2,0,0,1,2,2v8a2,2,0,0,1-2,2H41a2,2,0,0,1-2-2v-8A2,2,0,0,1,41,881Zm1,2h6a1,1,0,0,1,1,1v6a1,1,0,0,1-1,1H42a1,1,0,0,1-1-1v-6A1,1,0,0,1,42,883Zm3,3a1,1,0,1,1-1,1A1,1,0,0,1,45,886Z" transform="translate(-22 -850)"/>
</svg>
