<svg id="组_15" data-name="组 15" xmlns="http://www.w3.org/2000/svg" width="69.5" height="76.5" viewBox="0 0 69.5 76.5">
  <defs>
    <style>
      .cls-1, .cls-2, .cls-3, .cls-4, .cls-5 {
        stroke: #434343;
      }

      .cls-1, .cls-2, .cls-4, .cls-5 {
        stroke-linejoin: round;
      }

      .cls-1, .cls-2, .cls-3, .cls-4 {
        stroke-width: 1px;
      }

      .cls-2, .cls-4, .cls-5 {
        fill: #fff;
      }

      .cls-3 {
        fill: none;
      }

      .cls-3, .cls-4 {
        fill-rule: evenodd;
      }

      .cls-5 {
        stroke-width: 2px;
      }

      .cls-6 {
        font-size: 18px;
        fill: #595959;
        font-family: "Microsoft YaHei";
      }
    </style>
  </defs>
  <g id="组_6" data-name="组 6" class="cls-1">
    <rect id="圆角矩形_21_拷贝" data-name="圆角矩形 21 拷贝" class="cls-2" x="2.5" y="32" width="47" height="44" rx="3" ry="3"/>
    <path id="形状_10" data-name="形状 10" class="cls-3" d="M253.015,1082v39" transform="translate(-234.5 -1045)"/>
    <path id="形状_11" data-name="形状 11" class="cls-3" d="M261.605,1106.41l3.628-6.08" transform="translate(-234.5 -1045)"/>
    <path id="形状_11_拷贝_2" data-name="形状 11 拷贝 2" class="cls-3" d="M268.86,1106.41l3.628-6.08" transform="translate(-234.5 -1045)"/>
    <path id="形状_11_拷贝" data-name="形状 11 拷贝" class="cls-3" d="M264.023,1109.06l5.663-9.94" transform="translate(-234.5 -1045)"/>
    <path id="形状_12" data-name="形状 12" class="cls-3" d="M250.721,1101.12a3.7,3.7,0,0,0,0,6.94" transform="translate(-234.5 -1045)"/>
    <path id="圆角矩形_20" data-name="圆角矩形 20" class="cls-4" d="M242.834,1059c2.323,0,4.206,2.18,4.206,4.86l-2.366,19.45a4.837,4.837,0,1,1-9.674,0l3.628-19.45C238.628,1061.18,240.511,1059,242.834,1059Z" transform="translate(-234.5 -1045)"/>
    <path id="圆角矩形_22" data-name="圆角矩形 22" class="cls-4" d="M250.037,1059c2.323,0,4.207,2.18,4.207,4.86l-1.1,19.45a4.838,4.838,0,1,1-9.675,0l2.366-19.45C245.831,1061.18,247.714,1059,250.037,1059Z" transform="translate(-234.5 -1045)"/>
    <path id="圆角矩形_20_拷贝_2" data-name="圆角矩形 20 拷贝 2" class="cls-4" d="M279.166,1059c-2.323,0-4.206,2.18-4.206,4.86l2.366,19.45a4.837,4.837,0,1,0,9.674,0l-3.628-19.45C283.372,1061.18,281.489,1059,279.166,1059Z" transform="translate(-234.5 -1045)"/>
    <path id="圆角矩形_22_拷贝" data-name="圆角矩形 22 拷贝" class="cls-4" d="M271.963,1059c-2.323,0-4.207,2.18-4.207,4.86l1.1,19.45a4.838,4.838,0,1,0,9.675,0l-2.366-19.45C276.169,1061.18,274.286,1059,271.963,1059Z" transform="translate(-234.5 -1045)"/>
    <path id="圆角矩形_20_拷贝" data-name="圆角矩形 20 拷贝" class="cls-4" d="M264.6,1059c2.323,0,4.206,2.18,4.206,4.86l1.262,19.45a4.838,4.838,0,1,1-9.675,0v-19.45C260.4,1061.18,262.279,1059,264.6,1059Z" transform="translate(-234.5 -1045)"/>
    <path id="圆角矩形_23" data-name="圆角矩形 23" class="cls-4" d="M257.4,1059c2.323,0,4.207,2.18,4.207,4.86v19.45a4.838,4.838,0,1,1-9.675,0l1.262-19.45C253.192,1061.18,255.075,1059,257.4,1059Z" transform="translate(-234.5 -1045)"/>
    <path id="圆角矩形_21" data-name="圆角矩形 21" class="cls-4" d="M238.209,1059h44.372a2,2,0,0,1,2,2v0.86a2,2,0,0,1-2,2H238.209a2,2,0,0,1-2-2V1061A2,2,0,0,1,238.209,1059Z" transform="translate(-234.5 -1045)"/>
  </g>
  <g id="组_10" data-name="组 10">
    <circle id="椭圆_4_拷贝" data-name="椭圆 4 拷贝" class="cls-5" cx="53.5" cy="16" r="13"/>
    <text id="_2" data-name="2" class="cls-6" x="48.416" y="23.072">2</text>
  </g>
</svg>
