<svg id="组_16" data-name="组 16" xmlns="http://www.w3.org/2000/svg" width="74" height="80" viewBox="0 0 74 80">
  <defs>
    <style>
      .cls-1, .cls-2 {
        fill: #fff;
        stroke: #434343;
        stroke-linejoin: round;
      }

      .cls-1 {
        stroke-width: 2px;
      }

      .cls-2 {
        stroke-width: 1px;
        fill-rule: evenodd;
      }

      .cls-3 {
        font-size: 18px;
        fill: #595959;
        font-family: "Microsoft YaHei";
      }
    </style>
  </defs>
  <g id="组_7" data-name="组 7">
    <circle id="圆角矩形_24" data-name="圆角矩形 24" class="cls-1" cx="34" cy="46" r="31"/>
    <path id="形状_4_拷贝" data-name="形状 4 拷贝" class="cls-2" d="M571,1122a31,31,0,1,1,31-31A31,31,0,0,1,571,1122Zm0-58.12A27.12,27.12,0,1,0,598.125,1091,27.121,27.121,0,0,0,571,1063.88Zm11.737,19.72a1.74,1.74,0,0,0-.229-0.01,20.982,20.982,0,0,0-4.438.34v18.48h-0.157l-2.846.2H574.9v-21.76l0.106-.04a22.031,22.031,0,0,1,7.334-1.45,10.545,10.545,0,0,1,6.029,1.53l0.066,0.05v4.42l-0.284-.22A9.484,9.484,0,0,0,582.737,1083.6Zm-18.047,4.73,0.29,0.15c2.253,1.18,6.03,3.16,6.03,7.52a6.8,6.8,0,0,1-1.95,4.83,7.127,7.127,0,0,1-4.85,1.77,10.875,10.875,0,0,1-6.733-2.17l-0.067-.05v-4.95l0.3,0.36a8.188,8.188,0,0,0,6.138,2.87,2.65,2.65,0,0,0,2.954-2.85c0-1.74-1.773-2.74-3.748-3.7l-0.152-.07c-2.574-1.24-5.488-2.66-5.488-6.49,0-3.43,2.839-6.04,6.754-6.18,0.18-.01.353-0.02,0.526-0.02a12.561,12.561,0,0,1,6.242,1.56l0.068,0.05,0,0.09v4.14l-0.3-.26a10.639,10.639,0,0,0-5.814-1.76,5,5,0,0,0-2.111.41,2.008,2.008,0,0,0-1.169,1.97C561.609,1086.73,562.97,1087.44,564.69,1088.33Zm19.146,0.12a2.575,2.575,0,0,1,2.61,2.59,2.623,2.623,0,1,1-5.245,0A2.586,2.586,0,0,1,583.836,1088.45Z" transform="translate(-537 -1045)"/>
  </g>
  <g id="组_12" data-name="组 12">
    <circle id="椭圆_4_拷贝_3" data-name="椭圆 4 拷贝 3" class="cls-1" cx="58" cy="16" r="13"/>
    <text id="_4" data-name="4" class="cls-3" x="52.916" y="23.072">4</text>
  </g>
</svg>
