<svg id="组_46" data-name="组 46" xmlns="http://www.w3.org/2000/svg" width="48" height="45" viewBox="0 0 48 45">
  <defs>
    <style>
      .cls-1, .cls-2, .cls-4, .cls-5 {
        fill: none;
        stroke: #434343;
        fill-rule: evenodd;
      }

      .cls-1, .cls-2 {
        stroke-linecap: round;
      }

      .cls-1, .cls-2, .cls-4 {
        stroke-linejoin: round;
      }

      .cls-1 {
        stroke-width: 4px;
      }

      .cls-2, .cls-4, .cls-5 {
        stroke-width: 3px;
      }

      .cls-3 {
        fill: #fbfbfb;
      }
    </style>
  </defs>
  <g id="组_45" data-name="组 45">
    <path id="形状_21" data-name="形状 21" class="cls-1" d="M83,509l8-7h22l9,7-3,27H87Z" transform="translate(-81 -500)"/>
    <path id="形状_22" data-name="形状 22" class="cls-2" d="M100,503l-2,6,2,13h5l2-13-3-6h-4Z" transform="translate(-81 -500)"/>
    <path id="形状_23" data-name="形状 23" class="cls-2" d="M84,509H95" transform="translate(-81 -500)"/>
    <path id="形状_23_拷贝" data-name="形状 23 拷贝" class="cls-2" d="M110,509h11" transform="translate(-81 -500)"/>
  </g>
  <rect id="圆角矩形_56" data-name="圆角矩形 56" class="cls-3" x="23" y="20" width="25" height="25" rx="11.5" ry="11.5"/>
  <path id="圆角矩形_57" data-name="圆角矩形 57" class="cls-4" d="M111.96,524.433a7.461,7.461,0,0,1,3.888-1.086h1.3a7.507,7.507,0,0,1,7.5,7.51v1.306a7.506,7.506,0,0,1-7.5,7.51h-1.3a7.506,7.506,0,0,1-7.5-7.51v-1.306" transform="translate(-81 -500)"/>
  <path id="形状_24" data-name="形状 24" class="cls-5" d="M118.182,519.884l-4.364,4.434,4.364,3.547" transform="translate(-81 -500)"/>
</svg>
