<svg id="组_1_副本_2" data-name="组 1 副本 2" xmlns="http://www.w3.org/2000/svg" width="60" height="60" viewBox="0 0 60 60">
  <defs>
    <style>
      .cls-1 {
        fill: #cacaca;
      }

      .cls-2 {
        fill: #fff;
        fill-rule: evenodd;
      }
    </style>
  </defs>
  <circle id="椭圆_1" data-name="椭圆 1" class="cls-1" cx="30" cy="30" r="30"/>
  <path id="圆角矩形_3_副本" data-name="圆角矩形 3 副本" class="cls-2" d="M540.663,957.9l-10.418,9.766a1.148,1.148,0,0,1-1.6,0l-5.308-5.227a1.1,1.1,0,0,1,0-1.578,1.146,1.146,0,0,1,1.6,0l4.526,4.457,9.6-9a1.146,1.146,0,0,1,1.6,0A1.1,1.1,0,0,1,540.663,957.9Z" transform="translate(-489 -920)"/>
  <path id="圆角矩形_8" data-name="圆角矩形 8" class="cls-2" d="M537,943h-2v12.588l-2,1.765V943H505v21h3V945h22v15l-2-1V947H510v17h10.889l1.778,2H503V943h-2a1,1,0,0,1,0-2h2.306l14.586-9.866a0.988,0.988,0,0,1,.8-0.08,1.009,1.009,0,0,1,.808.08L534.311,941H537A1,1,0,0,1,537,943Zm-18.308-10-11.825,8H530.7ZM512,961.5a0.5,0.5,0,0,1,.5-0.5h7l0.25,1H512.5A0.5,0.5,0,0,1,512,961.5Zm13.5-3.5h-13a0.5,0.5,0,0,1,0-1h13A0.5,0.5,0,0,1,525.5,958Zm0-8h-13a0.5,0.5,0,0,1,0-1h13A0.5,0.5,0,0,1,525.5,950Zm0,4h-13a0.5,0.5,0,0,1,0-1h13A0.5,0.5,0,0,1,525.5,954Z" transform="translate(-489 -920)"/>
</svg>
