<svg id="组_14" data-name="组 14" xmlns="http://www.w3.org/2000/svg" width="67.5" height="76.5" viewBox="0 0 67.5 76.5">
  <defs>
    <style>
      .cls-1, .cls-2, .cls-3, .cls-4 {
        stroke: #434343;
      }

      .cls-1, .cls-2, .cls-4 {
        stroke-linejoin: round;
      }

      .cls-1, .cls-2, .cls-3 {
        stroke-width: 1px;
      }

      .cls-2, .cls-4 {
        fill: #fff;
      }

      .cls-3 {
        fill: none;
        fill-rule: evenodd;
      }

      .cls-4 {
        stroke-width: 2px;
      }

      .cls-5 {
        font-size: 18px;
        fill: #595959;
        font-family: "Microsoft YaHei";
      }
    </style>
  </defs>
  <g id="组_5" data-name="组 5" class="cls-1">
    <rect id="圆角矩形_19_拷贝" data-name="圆角矩形 19 拷贝" class="cls-2" x="14.5" y="14" width="26" height="24" rx="6" ry="6"/>
    <rect id="圆角矩形_19" data-name="圆角矩形 19" class="cls-2" x="0.5" y="23" width="53" height="31" rx="6" ry="6"/>
    <circle id="椭圆_3" data-name="椭圆 3" class="cls-2" cx="8.5" cy="30" r="3"/>
    <circle id="椭圆_3_拷贝" data-name="椭圆 3 拷贝" class="cls-2" cx="17.5" cy="30" r="3"/>
    <rect id="圆角矩形_19_拷贝_2" data-name="圆角矩形 19 拷贝 2" class="cls-2" x="11.5" y="46" width="32" height="30"/>
    <path id="形状_6" data-name="形状 6" class="cls-3" d="M409,1098h17" transform="translate(-390.5 -1045)"/>
    <path id="形状_7" data-name="形状 7" class="cls-3" d="M415,1062c-3.828,0-6,.59-6,2.73" transform="translate(-390.5 -1045)"/>
    <path id="形状_8" data-name="形状 8" class="cls-3" d="M409,1066.01V1067" transform="translate(-390.5 -1045)"/>
    <path id="形状_6_拷贝" data-name="形状 6 拷贝" class="cls-3" d="M409,1102h17" transform="translate(-390.5 -1045)"/>
    <path id="形状_6_拷贝_2" data-name="形状 6 拷贝 2" class="cls-3" d="M409,1106h17" transform="translate(-390.5 -1045)"/>
    <path id="形状_6_拷贝_3" data-name="形状 6 拷贝 3" class="cls-3" d="M409,1110h17" transform="translate(-390.5 -1045)"/>
    <path id="形状_6_拷贝_4" data-name="形状 6 拷贝 4" class="cls-3" d="M409,1114h17" transform="translate(-390.5 -1045)"/>
    <rect id="圆角矩形_19_拷贝_4" data-name="圆角矩形 19 拷贝 4" class="cls-2" x="8.5" y="46" width="38" height="3"/>
  </g>
  <g id="组_11" data-name="组 11">
    <circle id="椭圆_4_拷贝_2" data-name="椭圆 4 拷贝 2" class="cls-4" cx="51.5" cy="16" r="13"/>
    <text id="_3" data-name="3" class="cls-5" x="46.416" y="23.072">3</text>
  </g>
</svg>
