<svg xmlns="http://www.w3.org/2000/svg" xmlns:xlink="http://www.w3.org/1999/xlink" width="24" height="23" viewBox="0 0 24 23">
  <defs>
    <style>
      .cls-1 {
        filter: url(#filter);
      }

      .cls-2 {
        fill: #434343;
        fill-opacity: 0;
        stroke-linejoin: round;
        stroke-width: 2px;
      }

      .cls-2, .cls-4 {
        stroke: #979797;
      }

      .cls-2, .cls-3, .cls-4 {
        fill-rule: evenodd;
      }

      .cls-3 {
        fill: #979797;
      }

      .cls-4 {
        fill: none;
        stroke-width: 1px;
      }
    </style>
    <filter id="filter" filterUnits="userSpaceOnUse">
      <feFlood result="flood" flood-color="#434343"/>
      <feComposite result="composite" operator="in" in2="SourceGraphic"/>
      <feBlend result="blend" in2="SourceGraphic"/>
    </filter>
  </defs>
  <g id="组_29" data-name="组 29" class="cls-1">
    <path id="圆角矩形_37" data-name="圆角矩形 37" class="cls-2" d="M391.5,659h-15a1.5,1.5,0,0,1,0-3H377v-6a7,7,0,0,1,14,0v6h0.5A1.5,1.5,0,0,1,391.5,659Z" transform="translate(-372 -640)"/>
    <path id="圆角矩形_38" data-name="圆角矩形 38" class="cls-3" d="M383,660a1,1,0,0,0,2,0h1v1a2,2,0,0,1-4,0v-1h1Z" transform="translate(-372 -640)"/>
    <path id="形状_7" data-name="形状 7" class="cls-4" d="M380,653s0.031-3.765,1-5a5.1,5.1,0,0,1,3-2" transform="translate(-372 -640)"/>
  </g>
</svg>
