<svg id="组_45" data-name="组 45" xmlns="http://www.w3.org/2000/svg" width="50" height="46" viewBox="0 0 50 46">
  <defs>
    <style>
      .cls-1 {
        fill: #434343;
        fill-rule: evenodd;
      }
    </style>
  </defs>
  <path id="椭圆_22" data-name="椭圆 22" class="cls-1" d="M56.946,452.821a18.931,18.931,0,0,0-12.1-16.651c2.091,3.986,3.445,9.947,3.572,16.651H46.482c-0.221-9.948-3.649-17.86-7.862-17.86-4.239,0-7.687,8.006-7.869,18.039h7.869v2H30.757c0.254,9.873,3.672,17.7,7.862,17.7v4.3c-0.04,0-.079.006-0.119,0.006a22.743,22.743,0,0,1-22.489-22.783c0-.019-0.011-0.034-0.011-0.053v-0.328c0-.019.009-0.034,0.011-0.053A22.743,22.743,0,0,1,38.5,431c0.028,0,.055,0,0.083,0,0.012,0,.024,0,0.036,0,0.032,0,.062.01,0.093,0.011a22.7,22.7,0,0,1,22.221,21.81H56.946ZM32.713,472.038c-2.248-3.945-3.731-10.077-3.885-17.038H20.04A18.923,18.923,0,0,0,32.713,472.038ZM20.039,453h8.779c0.107-6.845,1.5-12.923,3.644-16.944A18.928,18.928,0,0,0,20.039,453Z" transform="translate(-16 -431)"/>
  <path id="矩形_12" data-name="矩形 12" class="cls-1" d="M63.619,471.616V475H66v2H41v-2h2.381v-3.384a8.322,8.322,0,0,1,4.049-7.138,8.319,8.319,0,0,1-4.049-7.137V455H41v-2H66v2H63.619v2.341a8.319,8.319,0,0,1-4.049,7.137A8.322,8.322,0,0,1,63.619,471.616Zm-2.381-14.833V455H45.762v1.783a6.5,6.5,0,0,0,6.5,6.5h2.476A6.5,6.5,0,0,0,61.238,456.783Zm-6.5,8.891H52.262a6.5,6.5,0,0,0-6.5,6.5V475H61.238v-2.826A6.5,6.5,0,0,0,54.738,465.674Z" transform="translate(-16 -431)"/>
</svg>
