<svg id="组_1" data-name="组 1" xmlns="http://www.w3.org/2000/svg" width="60" height="60" viewBox="0 0 60 60">
  <defs>
    <style>
      .cls-1 {
        fill: #90d277;
      }

      .cls-2 {
        fill: #fff;
        fill-rule: evenodd;
      }
    </style>
  </defs>
  <circle id="椭圆_1" data-name="椭圆 1" class="cls-1" cx="30" cy="30" r="30"/>
  <path id="圆角矩形_3" data-name="圆角矩形 3" class="cls-2" d="M424.663,888.9l-10.418,9.766a1.148,1.148,0,0,1-1.6,0l-5.308-5.227a1.1,1.1,0,0,1,0-1.578,1.146,1.146,0,0,1,1.6,0l4.526,4.457,9.6-9a1.146,1.146,0,0,1,1.6,0A1.1,1.1,0,0,1,424.663,888.9ZM410,888H400a1,1,0,0,1,0-2h10A1,1,0,0,1,410,888Zm0-12H400a1,1,0,0,1,0-2h10A1,1,0,0,1,410,876Zm0,6H400a1,1,0,0,1,0-2h10A1,1,0,0,1,410,882Zm5-12H395v26h8.5l2.2,2H395a2,2,0,0,1-2-2V870a2,2,0,0,1,2-2h20a2,2,0,0,1,2,2v16.769l-2,1.692V870Z" transform="translate(-376 -853)"/>
</svg>
