<svg id="组_38" data-name="组 38" xmlns="http://www.w3.org/2000/svg" width="60" height="60" viewBox="0 0 60 60">
  <defs>
    <style>
      .cls-1 {
        fill: #cacaca;
      }

      .cls-2, .cls-4 {
        fill: none;
        stroke: #fff;
        stroke-width: 2px;
      }

      .cls-2, .cls-3, .cls-4 {
        fill-rule: evenodd;
      }

      .cls-3 {
        fill: #fff;
      }

      .cls-4 {
        stroke-linecap: round;
      }
    </style>
  </defs>
  <circle id="椭圆_23_拷贝" data-name="椭圆 23 拷贝" class="cls-1" cx="30" cy="30" r="30"/>
  <g id="组_39" data-name="组 39">
    <path id="圆角矩形_50" data-name="圆角矩形 50" class="cls-2" d="M266.634,904.227c2.575-1.491-7.426,2.613-13.783-8.428l-5.621-9.762c-6.175-10.726,2.051-17.912-.524-16.421,2.227-1.289,4.083-.425,5.982,1.18a3.616,3.616,0,0,1,1.142,1.2l0.256,0.443,2.044,3.55,0.255,0.444c0.988,1.715,1.3,3.389-.368,4.355a3.273,3.273,0,0,1-.458.2l0.026,0.045-0.863.5a3.042,3.042,0,0,0-1.056,4.161l3.066,5.325a3.024,3.024,0,0,0,4.122,1.164l0.863-.5,0.026,0.045a3.325,3.325,0,0,1,.405-0.294c1.668-.966,2.958.141,3.946,1.857l0.255,0.443,1.278,2.219,0.255,0.444C269.576,899.346,269.493,902.572,266.634,904.227Z" transform="translate(-232 -853)"/>
    <path id="椭圆_24" data-name="椭圆 24" class="cls-3" d="M261.134,882.634a1.5,1.5,0,1,1-.549,2.049A1.5,1.5,0,0,1,261.134,882.634Z" transform="translate(-232 -853)"/>
    <path id="形状_17" data-name="形状 17" class="cls-4" d="M262.313,877.677a6.041,6.041,0,0,1,5.22,9.041" transform="translate(-232 -853)"/>
    <path id="形状_18" data-name="形状 18" class="cls-4" d="M264.033,870.656a13.4,13.4,0,0,1,10.44,18.082" transform="translate(-232 -853)"/>
  </g>
</svg>
