<svg id="组_40" data-name="组 40" xmlns="http://www.w3.org/2000/svg" width="20" height="25" viewBox="0 0 20 25">
  <defs>
    <style>
      .cls-1 {
        fill: #f66465;
        fill-opacity: 0;
        stroke-linejoin: round;
      }

      .cls-1, .cls-2 {
        stroke: #434343;
        stroke-width: 2px;
        fill-rule: evenodd;
      }

      .cls-2 {
        fill: none;
      }
    </style>
  </defs>
  <path id="icon_拷贝" data-name="icon 拷贝" class="cls-1" d="M320.351,653.793H320.5l-4.511,6.215-4.51-6.215h0.166A6.474,6.474,0,0,1,309,648.616a7.011,7.011,0,0,1,14,0A6.474,6.474,0,0,1,320.351,653.793ZM316,645.979a2.653,2.653,0,1,0,2.805,2.649A2.73,2.73,0,0,0,316,645.979Z" transform="translate(-306 -639)"/>
  <path id="椭圆_26" data-name="椭圆 26" class="cls-2" d="M321.053,657.674c1.8,0.55,2.947,1.388,2.947,2.326,0,1.657-3.582,3-8,3s-8-1.343-8-3c0-.9,1.063-1.712,2.745-2.262" transform="translate(-306 -639)"/>
</svg>
