<svg xmlns="http://www.w3.org/2000/svg" width="28" height="18" viewBox="0 0 28 18">
  <defs>
    <style>
      .cls-1 {
        fill: #979797;
        fill-rule: evenodd;
      }
    </style>
  </defs>
  <path id="顺丰次晨" class="cls-1" d="M81,596H55a1,1,0,0,1,0-2H81A1,1,0,0,1,81,596Zm-5.354-10.293a1,1,0,0,1-1.414-1.414l2.121-2.121a1,1,0,0,1,1.414,1.414ZM73.994,593a5.994,5.994,0,0,0-11.988,0H60a8,8,0,0,1,16,0H73.994ZM68,583a1,1,0,0,1-1-1v-3a1,1,0,0,1,2,0v3A1,1,0,0,1,68,583Zm-9.714-.712a0.969,0.969,0,0,0,0,1.371l2.057,2.057a0.97,0.97,0,1,0,1.371-1.371l-2.057-2.057A0.969,0.969,0,0,0,58.286,582.288Z" transform="translate(-54 -578)"/>
</svg>
