<svg xmlns="http://www.w3.org/2000/svg" xmlns:xlink="http://www.w3.org/1999/xlink" width="44" height="44" viewBox="0 0 44 44">
  <defs>
    <style>
      .cls-1 {
        fill: #fff;
        fill-rule: evenodd;
        filter: url(#filter);
      }
    </style>
    <filter id="filter" x="430" y="496" width="44" height="44" filterUnits="userSpaceOnUse">
      <feFlood result="flood" flood-color="#414142"/>
      <feComposite result="composite" operator="in" in2="SourceGraphic"/>
      <feBlend result="blend" in2="SourceGraphic"/>
    </filter>
  </defs>
  <path id="_" data-name="￥" class="cls-1" d="M469.363,531.474l3.008,3.018a1.987,1.987,0,0,1-2.805,2.815l-2.915-2.925A22.012,22.012,0,1,1,469.363,531.474Zm-17.372-31.463a17.991,17.991,0,1,0,18,17.991A17.993,17.993,0,0,0,451.991,500.011Zm2.014,19.978h7v3.022h-7V528h-3.012v-4.985h-7v-3.022h7V518H443V515h7.252L445,508l3.367-.008,4.133,6.23L456.562,508H460l-5.251,7H462V518h-7.994v1.994Z" transform="translate(-430 -496)"/>
</svg>
