<svg xmlns="http://www.w3.org/2000/svg" xmlns:xlink="http://www.w3.org/1999/xlink" width="50" height="37.219" viewBox="0 0 50 37.219">
  <defs>
    <style>
      .cls-1 {
        fill: #fff;
        fill-rule: evenodd;
        filter: url(#filter);
      }
    </style>
    <filter id="filter" x="69.094" y="431.031" width="50" height="37.219" filterUnits="userSpaceOnUse">
      <feFlood result="flood" flood-color="#414142"/>
      <feComposite result="composite" operator="in" in2="SourceGraphic"/>
      <feBlend result="blend" in2="SourceGraphic"/>
    </filter>
  </defs>
  <path id="_" data-name="￥" class="cls-1" d="M104.092,452.148h6v2.011h-8v-9.053h2v7.042Zm-1,16.08a15.977,15.977,0,0,1-13.262-7.069,13.862,13.862,0,0,0,3.6-1.858,12.059,12.059,0,1,0,4.254-17.908A14.031,14.031,0,0,0,95.3,438.1a15.871,15.871,0,0,1,7.791-2.037A16.081,16.081,0,0,1,103.093,468.228Zm-4-23.122v4.024h-13v4.024h11v4.023h-11v11.065h-4V457.177h-11v-4.023h11V449.13h-13v-4.024h12.23L70.549,431.023l4.757-.007,8.917,12.021,9.4-12.021,4.746,0.007L86.911,445.106H99.092Z" transform="translate(-69.094 -431.031)"/>
</svg>
